<svg width="79" height="78" viewBox="0 0 79 78" fill="none" xmlns="http://www.w3.org/2000/svg">
<path d="M6.23169 48.2439C5.61195 48.2439 5.10956 47.7415 5.10956 47.1217C5.10956 46.502 5.61195 45.9996 6.23169 45.9996H8.32741C8.94714 45.9996 9.44954 46.502 9.44954 47.1217C9.44954 47.7415 8.94714 48.2439 8.32741 48.2439H6.23169Z" fill="#CF000F"/>
<path d="M6.83216 42.0709C6.23354 41.9105 5.87829 41.2952 6.03869 40.6966C6.19909 40.0979 6.8144 39.7427 7.41302 39.9031L9.43732 40.4455C10.0359 40.6059 10.3912 41.2212 10.2308 41.8198C10.0704 42.4184 9.45508 42.7737 8.85646 42.6133L6.83216 42.0709Z" fill="#CF000F"/>
<path d="M8.63616 36.369C8.09946 36.0592 7.91557 35.3729 8.22543 34.8362C8.5353 34.2995 9.22159 34.1156 9.7583 34.4255L11.5732 35.4733C12.1099 35.7832 12.2938 36.4695 11.984 37.0062C11.6741 37.5429 10.9878 37.7268 10.4511 37.4169L8.63616 36.369Z" fill="#CF000F"/>
<path d="M12.29 31.1352C11.8518 30.697 11.8518 29.9865 12.29 29.5483C12.7282 29.11 13.4387 29.11 13.8769 29.5483L15.3588 31.0302C15.797 31.4684 15.797 32.1789 15.3588 32.6171C14.9206 33.0553 14.2101 33.0553 13.7719 32.6171L12.29 31.1352Z" fill="#CF000F"/>
<mask id="path-5-inside-1_5_7617" fill="white">
<path d="M47.8113 49.3807C48.2312 45.2692 47.1878 41.1413 44.8646 37.7232C42.5414 34.3051 39.0873 31.8157 35.1099 30.6928C31.1324 29.57 26.8865 29.8857 23.1188 31.5845C19.3512 33.2832 16.3032 36.2561 14.5111 39.9802C12.719 43.7043 12.2975 47.9411 13.3208 51.9453C14.3441 55.9495 16.7467 59.4646 20.1058 61.8722C23.465 64.2799 27.5656 65.4259 31.6862 65.1087C35.8069 64.7915 39.6838 63.0313 42.6348 60.1379L40.9255 58.3945C38.3847 60.8858 35.0467 62.4012 31.4988 62.6744C27.951 62.9475 24.4204 61.9608 21.5282 59.8878C18.636 57.8148 16.5674 54.7883 15.6863 51.3408C14.8053 47.8932 15.1682 44.2453 16.7112 41.0389C18.2541 37.8324 20.8784 35.2728 24.1223 33.8102C27.3662 32.3476 31.022 32.0758 34.4466 33.0425C37.8711 34.0093 40.8451 36.1527 42.8453 39.0956C44.8456 42.0386 45.744 45.5927 45.3825 49.1327L47.8113 49.3807Z"/>
</mask>
<path d="M47.8113 49.3807C48.2312 45.2692 47.1878 41.1413 44.8646 37.7232C42.5414 34.3051 39.0873 31.8157 35.1099 30.6928C31.1324 29.57 26.8865 29.8857 23.1188 31.5845C19.3512 33.2832 16.3032 36.2561 14.5111 39.9802C12.719 43.7043 12.2975 47.9411 13.3208 51.9453C14.3441 55.9495 16.7467 59.4646 20.1058 61.8722C23.465 64.2799 27.5656 65.4259 31.6862 65.1087C35.8069 64.7915 39.6838 63.0313 42.6348 60.1379L40.9255 58.3945C38.3847 60.8858 35.0467 62.4012 31.4988 62.6744C27.951 62.9475 24.4204 61.9608 21.5282 59.8878C18.636 57.8148 16.5674 54.7883 15.6863 51.3408C14.8053 47.8932 15.1682 44.2453 16.7112 41.0389C18.2541 37.8324 20.8784 35.2728 24.1223 33.8102C27.3662 32.3476 31.022 32.0758 34.4466 33.0425C37.8711 34.0093 40.8451 36.1527 42.8453 39.0956C44.8456 42.0386 45.744 45.5927 45.3825 49.1327L47.8113 49.3807Z" stroke="#CF000F" stroke-width="6" mask="url(#path-5-inside-1_5_7617)"/>
<mask id="path-6-inside-2_5_7617" fill="white">
<path d="M35.1283 47.9157C35.1283 50.7376 32.8407 53.0253 30.0187 53.0253C27.1968 53.0253 24.9091 50.7376 24.9091 47.9157C24.9091 45.0938 27.1968 42.8061 30.0187 42.8061C32.8407 42.8061 35.1283 45.0938 35.1283 47.9157ZM27.1697 47.9157C27.1697 49.4892 28.4452 50.7648 30.0187 50.7648C31.5922 50.7648 32.8678 49.4892 32.8678 47.9157C32.8678 46.3422 31.5922 45.0666 30.0187 45.0666C28.4452 45.0666 27.1697 46.3422 27.1697 47.9157Z"/>
</mask>
<path d="M35.1283 47.9157C35.1283 50.7376 32.8407 53.0253 30.0187 53.0253C27.1968 53.0253 24.9091 50.7376 24.9091 47.9157C24.9091 45.0938 27.1968 42.8061 30.0187 42.8061C32.8407 42.8061 35.1283 45.0938 35.1283 47.9157ZM27.1697 47.9157C27.1697 49.4892 28.4452 50.7648 30.0187 50.7648C31.5922 50.7648 32.8678 49.4892 32.8678 47.9157C32.8678 46.3422 31.5922 45.0666 30.0187 45.0666C28.4452 45.0666 27.1697 46.3422 27.1697 47.9157Z" stroke="#CF000F" stroke-width="6" mask="url(#path-6-inside-2_5_7617)"/>
<path d="M20.6958 48.6408C20.6207 48.534 20.5748 48.4384 20.5481 48.3758C20.4919 48.2442 20.4691 48.1352 20.4595 48.082C20.4489 48.0226 20.4452 47.9778 20.4438 47.9562C20.4423 47.9328 20.4423 47.9182 20.4423 47.9157C20.4423 47.7757 20.5558 47.6622 20.6958 47.6622C20.8358 47.6622 20.9493 47.7757 20.9493 47.9157C20.9493 47.9182 20.9493 47.9328 20.9478 47.9562C20.9464 47.9778 20.9427 48.0226 20.932 48.082C20.9225 48.1352 20.8996 48.2442 20.8435 48.3758C20.8168 48.4384 20.7709 48.534 20.6958 48.6408ZM20.0515 47.8835C20.0212 47.9183 20.0221 47.9094 20.0538 47.8809C20.053 47.8818 20.0523 47.8827 20.0515 47.8835ZM21.3401 47.8835C21.3393 47.8827 21.3386 47.8818 21.3378 47.8809C21.3695 47.9094 21.3704 47.9183 21.3401 47.8835Z" stroke="#CF000F" stroke-width="3"/>
<path d="M29.6994 39.3797C29.6243 39.2729 29.5783 39.1773 29.5516 39.1147C29.4955 38.983 29.4727 38.8741 29.4631 38.8209C29.4524 38.7615 29.4488 38.7167 29.4474 38.6951C29.4459 38.6717 29.4458 38.6571 29.4458 38.6546C29.4458 38.5146 29.5593 38.4011 29.6994 38.4011C29.8394 38.4011 29.9529 38.5146 29.9529 38.6546C29.9529 38.6571 29.9529 38.6717 29.9513 38.6951C29.9499 38.7167 29.9463 38.7615 29.9356 38.8209C29.926 38.8741 29.9032 38.983 29.8471 39.1147C29.8204 39.1773 29.7745 39.2729 29.6994 39.3797ZM29.0551 38.6224C29.0247 38.6572 29.0257 38.6483 29.0574 38.6198C29.0566 38.6207 29.0558 38.6216 29.0551 38.6224ZM30.3436 38.6224C30.3429 38.6216 30.3421 38.6207 30.3414 38.6198C30.373 38.6483 30.374 38.6572 30.3436 38.6224Z" stroke="#CF000F" stroke-width="3"/>
<path d="M29.6994 57.9019C29.6243 57.7951 29.5783 57.6995 29.5516 57.6369C29.4955 57.5052 29.4727 57.3962 29.4631 57.343C29.4524 57.2837 29.4488 57.2389 29.4474 57.2173C29.4459 57.1939 29.4458 57.1793 29.4458 57.1768C29.4458 57.0368 29.5593 56.9232 29.6994 56.9232C29.8394 56.9232 29.9529 57.0368 29.9529 57.1768C29.9529 57.1793 29.9529 57.1939 29.9513 57.2173C29.9499 57.2389 29.9463 57.2837 29.9356 57.343C29.926 57.3962 29.9032 57.5052 29.8471 57.6369C29.8204 57.6995 29.7745 57.7951 29.6994 57.9019ZM29.0551 57.1446C29.0247 57.1793 29.0257 57.1705 29.0574 57.142C29.0566 57.1429 29.0558 57.1437 29.0551 57.1446ZM30.3436 57.1446C30.3429 57.1437 30.3421 57.1429 30.3414 57.142C30.373 57.1705 30.374 57.1793 30.3436 57.1446Z" stroke="#CF000F" stroke-width="3"/>
<path d="M39.2798 48.9602C39.2047 48.8534 39.1588 48.7578 39.1321 48.6952C39.076 48.5635 39.0532 48.4545 39.0436 48.4013C39.0329 48.342 39.0293 48.2972 39.0279 48.2756C39.0263 48.2522 39.0263 48.2376 39.0263 48.2351C39.0263 48.095 39.1398 47.9815 39.2798 47.9815C39.4199 47.9815 39.5334 48.095 39.5334 48.2351C39.5334 48.2376 39.5333 48.2522 39.5318 48.2756C39.5304 48.2972 39.5268 48.342 39.5161 48.4013C39.5065 48.4545 39.4837 48.5635 39.4276 48.6952C39.4009 48.7578 39.3549 48.8534 39.2798 48.9602ZM38.6356 48.2029C38.6052 48.2376 38.6062 48.2288 38.6378 48.2003C38.6371 48.2012 38.6363 48.202 38.6356 48.2029ZM39.9241 48.2029C39.9234 48.202 39.9226 48.2012 39.9218 48.2003C39.9535 48.2288 39.9545 48.2376 39.9241 48.2029Z" stroke="#CF000F" stroke-width="3"/>
<circle cx="30.3381" cy="47.5964" r="28.3381" stroke="#CF000F" stroke-width="4"/>
<path d="M34.1414 68.1026C33.981 67.504 34.3362 66.8887 34.9348 66.7283C35.5334 66.5679 36.1487 66.9232 36.3091 67.5218L36.8516 69.5461C37.012 70.1447 36.6567 70.76 36.0581 70.9204C35.4595 71.0808 34.8442 70.7256 34.6838 70.1269L34.1414 68.1026Z" fill="#CF000F"/>
<path d="M39.5215 65.977C39.2116 65.4403 39.3955 64.754 39.9322 64.4442C40.469 64.1343 41.1552 64.3182 41.4651 64.8549L42.513 66.6698C42.8228 67.2065 42.6389 67.8928 42.1022 68.2027C41.5655 68.5126 40.8792 68.3287 40.5694 67.792L39.5215 65.977Z" fill="#CF000F"/>
<path d="M29.38 68.8374C29.38 68.2177 29.8824 67.7153 30.5022 67.7153C31.1219 67.7153 31.6243 68.2177 31.6243 68.8374V70.9331C31.6243 71.5529 31.1219 72.0553 30.5022 72.0553C29.8824 72.0553 29.38 71.5529 29.38 70.9331V68.8374Z" fill="#CF000F"/>
<path d="M45.924 56.1779C45.7121 56.7603 45.0682 57.0606 44.4858 56.8486C43.9034 56.6366 43.6032 55.9927 43.8151 55.4103L44.5319 53.441C44.7439 52.8587 45.3878 52.5584 45.9702 52.7704C46.5525 52.9823 46.8528 53.6262 46.6408 54.2086L45.924 56.1779Z" fill="#CF000F"/>
<path d="M16.7996 26.9041C16.4897 26.3674 16.6736 25.6811 17.2103 25.3712C17.747 25.0614 18.4333 25.2453 18.7432 25.782L19.791 27.5969C20.1009 28.1336 19.917 28.8199 19.3803 29.1298C18.8436 29.4396 18.1573 29.2557 17.8474 28.719L16.7996 26.9041Z" fill="#CF000F"/>
<path d="M22.4174 24.0865C22.257 23.4879 22.6122 22.8725 23.2108 22.7121C23.8095 22.5517 24.4248 22.907 24.5852 23.5056L25.1276 25.5299C25.288 26.1285 24.9327 26.7438 24.3341 26.9042C23.7355 27.0646 23.1202 26.7094 22.9598 26.1108L22.4174 24.0865Z" fill="#CF000F"/>
<path d="M31.0054 16.2144C30.9818 16.1057 31.0708 16.0053 31.1815 16.0158C46.688 17.4849 59.5211 28.6987 63.0557 43.8682L63.6023 46.2141C63.6624 46.4719 63.4286 46.7019 63.1718 46.6377L52.5429 43.9805C51.7439 43.7807 51.0855 43.2164 50.7659 42.4573L50.4889 41.7994C47.7627 35.3247 42.4663 30.2756 35.8687 27.8618C34.2918 27.2849 33.1199 25.9409 32.7632 24.3001L31.0054 16.2144Z" fill="white" stroke="#CF000F" stroke-width="4"/>
<mask id="path-19-inside-3_5_7617" fill="white">
<path d="M55.5695 40.2513C56.2424 40.2513 56.7565 39.6546 56.5754 39.0065C55.7338 35.9958 53.4577 32.1813 51.7344 30.0322C50.1009 27.9951 47.2808 25.7113 44.6839 24.3567C43.9433 23.9704 43.112 24.5371 43.112 25.3724C43.112 25.8703 43.4235 26.3103 43.8715 26.5278C46.13 27.6243 48.3002 29.7358 49.8183 31.629C51.3173 33.4983 53.634 36.742 54.3984 39.3155C54.5553 39.8439 55.0182 40.2513 55.5695 40.2513Z"/>
</mask>
<path d="M54.3984 39.3155L51.5226 40.1697L54.3984 39.3155ZM56.5754 39.0065L53.6861 39.8141L56.5754 39.0065ZM59.4646 38.1989C58.4803 34.6772 55.9584 30.5044 54.0749 28.1555L49.3939 31.909C50.9569 33.8581 52.9874 37.3145 53.6861 39.8141L59.4646 38.1989ZM54.0749 28.1555C52.1582 25.7653 49.0025 23.2258 46.0714 21.6968L43.2965 27.0166C45.5591 28.1968 48.0435 30.2249 49.3939 31.909L54.0749 28.1555ZM42.5612 29.2266C44.2473 30.0451 46.086 31.77 47.4778 33.5057L52.1588 29.7522C50.5144 27.7015 48.0128 25.2035 45.1817 23.829L42.5612 29.2266ZM47.4778 33.5057C48.9814 35.3807 50.9429 38.2183 51.5226 40.1697L57.2742 38.4613C56.325 35.2656 53.6533 31.616 52.1588 29.7522L47.4778 33.5057ZM40.112 25.3724C40.112 27.1654 41.218 28.5744 42.5612 29.2266L45.1817 23.829C45.629 24.0462 46.112 24.5752 46.112 25.3724H40.112ZM46.0714 21.6968C43.0816 20.1373 40.112 22.575 40.112 25.3724H46.112C46.112 25.9817 45.7975 26.5648 45.27 26.9121C44.7169 27.2762 43.9495 27.3573 43.2965 27.0166L46.0714 21.6968ZM51.5226 40.1697C51.9887 41.739 53.4631 43.2513 55.5695 43.2513V37.2513C56.5733 37.2513 57.122 37.9488 57.2742 38.4613L51.5226 40.1697ZM53.6861 39.8141C53.2609 38.2929 54.5312 37.2513 55.5695 37.2513V43.2513C57.9536 43.2513 60.2521 41.0162 59.4646 38.1989L53.6861 39.8141Z" fill="#CF000F" mask="url(#path-19-inside-3_5_7617)"/>
<path d="M38.5434 23.4124C37.9818 23.1505 37.7387 22.4828 38.0007 21.9212C38.2626 21.3595 38.9302 21.1165 39.4919 21.3784L41.3913 22.2641C41.9529 22.526 42.1959 23.1937 41.934 23.7553C41.6721 24.317 41.0045 24.56 40.4428 24.2981L38.5434 23.4124Z" fill="#CF000F"/>
</svg>
