<svg width="70" height="70" viewBox="0 0 70 70" fill="none" xmlns="http://www.w3.org/2000/svg">
<path d="M30.4839 51.9354V57.5807H7.90312V59.8388H62.0964V57.5807H39.5158V51.9354H66.6126C68.48 51.9354 69.9998 50.4156 69.9998 48.5483V3.38715C69.9998 1.51979 68.4802 0 66.6126 0H3.38715C1.51979 0 0 1.51979 0 3.38715V48.5483C0 50.4156 1.51979 51.9354 3.38715 51.9354H30.4839ZM37.258 57.5804H32.7418V51.9352H37.258V57.5804ZM2.2581 48.5483V3.38715C2.2581 2.76501 2.76501 2.2581 3.38715 2.2581H66.6128C67.235 2.2581 67.7419 2.76501 67.7419 3.38715V48.5483H67.7416C67.7416 49.1716 67.2347 49.6773 66.6126 49.6773H3.38715C2.76501 49.6773 2.2581 49.1716 2.2581 48.5483Z" fill="#CF000F"/>
<path d="M65.4836 9.03223H4.5162V42.9031H65.4836V9.03223ZM63.2254 40.6452H6.77407V11.2903H63.2254V40.6452Z" fill="#CF000F"/>
<path d="M38.3868 45.1611H31.6127V47.4192H38.3868V45.1611Z" fill="#CF000F"/>
<path d="M14.6774 32.7417H22.7411C23.2458 34.6835 24.9992 36.1288 27.0968 36.1288C29.1943 36.1288 30.9479 34.6837 31.4524 32.7417H41.9345C42.4392 34.6835 44.1926 36.1288 46.2902 36.1288C48.3877 36.1288 50.1413 34.6837 50.6458 32.7417H57.5804V23.8596L49.2934 22.6753L45.8589 15.8064H29.8798L25.3195 22.6459L14.6774 23.8281V32.7417ZM27.0968 33.8707C25.8515 33.8707 24.8387 32.8581 24.8387 31.6126C24.8387 30.3674 25.8513 29.3545 27.0968 29.3545C28.342 29.3545 29.3549 30.3672 29.3549 31.6126C29.3549 32.8581 28.342 33.8707 27.0968 33.8707ZM46.2902 33.8707C45.0449 33.8707 44.0321 32.8581 44.0321 31.6126C44.0321 30.3674 45.0447 29.3545 46.2902 29.3545C47.5356 29.3545 48.5483 30.3672 48.5483 31.6126C48.5483 32.8581 47.5354 33.8707 46.2902 33.8707ZM16.9355 25.8491L26.6159 24.7731L31.088 18.0645H44.4636L47.8033 24.7437L55.3226 25.8175V30.4838H50.6461C50.1413 28.5418 48.388 27.0967 46.2902 27.0967C44.1923 27.0967 42.439 28.5418 41.9345 30.4838H31.4524C30.9477 28.542 29.1943 27.0967 27.0968 27.0967C24.9992 27.0967 23.2456 28.5418 22.7411 30.4838H16.9355V25.8491Z" fill="#CF000F"/>
<path d="M42.5884 19.1934H33.2669L29.504 24.8386H44.4704L42.5884 19.1934ZM33.7229 22.5805L34.4759 21.4515H40.961L41.337 22.5805H33.7229Z" fill="#CF000F"/>
<path d="M16.9353 13.5483H10.1612V15.8064H16.9353V13.5483Z" fill="#CF000F"/>
<path d="M16.9353 18.0645H10.1612V20.3226H16.9353V18.0645Z" fill="#CF000F"/>
<path d="M12.4193 23.7096H10.1612V25.9677H12.4193V23.7096Z" fill="#CF000F"/>
<path d="M20.3224 36.1289H10.1612V38.387H20.3224V36.1289Z" fill="#CF000F"/>
<path d="M59.8385 13.5483H51.9354V15.8064H59.8385V13.5483Z" fill="#CF000F"/>
<path d="M59.8385 18.0645H51.9354V20.3226H59.8385V18.0645Z" fill="#CF000F"/>
<path d="M59.8385 36.1289H51.9354V38.387H59.8385V36.1289Z" fill="#CF000F"/>
<path d="M33.8708 36.1289H31.6127V38.387H33.8708V36.1289Z" fill="#CF000F"/>
<path d="M38.387 36.1289H36.1289V38.387H38.387V36.1289Z" fill="#CF000F"/>
<path d="M12.4193 28.2257H10.1612V30.4838H12.4193V28.2257Z" fill="#CF000F"/>
<path d="M62.0966 60.9675C57.7386 60.9675 54.1935 64.5138 54.1935 68.8707V69.9997H70V68.8707C69.9998 64.5138 66.4547 60.9675 62.0966 60.9675ZM56.5654 67.7416C57.0894 65.1686 59.371 63.2254 62.0966 63.2254C64.8221 63.2254 67.1039 65.1684 67.6279 67.7416H56.5654Z" fill="#CF000F"/>
<path d="M1.12903 64.3547H4.51618V67.7418H1.12903V69.9999H51.9354V62.0968H1.12903V64.3547ZM46.2901 64.3544H49.6773V67.7416H46.2901V64.3544ZM40.6451 64.3547H44.0323V67.7418H40.6451V64.3547ZM34.9999 64.3544H38.387V67.7416H34.9999V64.3544ZM29.3548 64.3544H32.742V67.7416H29.3548V64.3544ZM23.7096 64.3544H27.0967V67.7416H23.7096V64.3544ZM18.0643 64.3544H21.4515V67.7416H18.0643V64.3544ZM12.4193 64.3544H15.8065V67.7416H12.4193V64.3544ZM6.77405 64.3547H10.1612V67.7418H6.77405V64.3547Z" fill="#CF000F"/>
<path d="M33.8708 4.51611H31.6127V6.77422H33.8708V4.51611Z" fill="#CF000F"/>
<path d="M38.387 4.51611H36.1289V6.77422H38.387V4.51611Z" fill="#CF000F"/>
</svg>
