<svg width="67" height="70" viewBox="0 0 67 70" fill="none" xmlns="http://www.w3.org/2000/svg">
<path d="M36.7417 7.90314H6.48376V23.7096H36.7417V7.90314ZM34.5806 21.4515H8.64508V10.1612H34.5806V21.4515Z" fill="#CF000F"/>
<path d="M21.6128 31.6127C15.0587 31.6127 9.72574 37.1845 9.72574 44.0321C9.72574 50.8796 15.0587 56.4514 21.6128 56.4514C28.1669 56.4514 33.4999 50.8796 33.4999 44.0321C33.4999 37.1845 28.1669 31.6127 21.6128 31.6127ZM12.7851 48.2716C12.2145 46.9789 11.8871 45.5462 11.8871 44.0321C11.8871 38.4288 16.2497 33.8708 21.6128 33.8708C23.062 33.8708 24.4334 34.213 25.6706 34.809L12.7851 48.2716ZM13.9413 50.2565L27.5692 36.0185C28.21 36.5389 28.7849 37.1397 29.283 37.809L15.6551 52.0471C15.0156 51.5267 14.4396 50.9249 13.9413 50.2565ZM31.3386 44.0321C31.3386 49.6356 26.976 54.1933 21.6128 54.1933C20.1636 54.1933 18.7922 53.8512 17.555 53.2551L30.4406 39.7925C31.0111 41.0852 31.3386 42.518 31.3386 44.0321Z" fill="#CF000F"/>
<path d="M22.6935 28.2258H20.5322V30.4839H22.6935V28.2258Z" fill="#CF000F"/>
<path d="M22.6935 57.5804H20.5322V59.8385H22.6935V57.5804Z" fill="#CF000F"/>
<path d="M36.7419 42.903H34.5805V45.1611H36.7419V42.903Z" fill="#CF000F"/>
<path d="M8.64508 42.903H6.48376V45.1611H8.64508V42.903Z" fill="#CF000F"/>
<path d="M31.6555 35.7982L33.1837 34.2015L31.0227 31.9437L29.4945 33.5404L31.6555 35.7982Z" fill="#CF000F"/>
<path d="M10.0421 53.8631L12.2031 56.1208L13.7314 54.5241L11.5704 52.2664L10.0421 53.8631Z" fill="#CF000F"/>
<path d="M29.4938 54.5244L31.0221 56.1212L33.1831 53.8634L31.6548 52.2667L29.4938 54.5244Z" fill="#CF000F"/>
<path d="M11.571 35.7982L13.732 33.5405L12.2037 31.9438L10.0427 34.2015L11.571 35.7982Z" fill="#CF000F"/>
<path d="M12.9677 12.4193H10.8064V19.1934H12.9677V12.4193Z" fill="#CF000F"/>
<path d="M17.2904 12.4193H15.1291V19.1934H17.2904V12.4193Z" fill="#CF000F"/>
<path d="M32.4192 12.4193H30.2579V14.6774H32.4192V12.4193Z" fill="#CF000F"/>
<path d="M21.6128 12.4193H19.4515V14.6774H21.6128V12.4193Z" fill="#CF000F"/>
<path d="M32.4192 16.9355H30.2579V19.1937H32.4192V16.9355Z" fill="#CF000F"/>
<path d="M66.9998 15.8065H65.9191V7.90312H63.7578V0H61.5965V7.90312H59.4351V15.8062H58.3545V18.0643H59.4351V27.0965C59.4351 28.5665 60.3417 29.8084 61.5965 30.276V51.9352C61.5965 59.4061 55.7794 65.4836 48.6287 65.4836H43.2254V58.7095H45.387C49.5571 58.7095 52.9514 55.1632 52.9514 50.8064V30.2762C54.2061 29.8089 55.1127 28.5668 55.1127 27.0968V18.0643H56.1934V15.8062H55.1127V7.90312H52.9514V0H50.79V7.90312H48.6287V15.8062H47.5481V18.0643H48.6287V27.0965C48.6287 28.5665 49.5353 29.8084 50.79 30.276V50.8061C50.79 53.919 48.3662 56.4514 45.3867 56.4514H43.2254V3.38715C43.2256 1.51979 41.7712 0 39.9836 0H3.24199C1.45465 0 0 1.51979 0 3.38715V66.6128C0 68.4802 1.45465 70 3.24199 70H39.9836C41.3906 70 42.5793 69.0528 43.0268 67.7419H48.6289C56.9715 67.7419 63.758 60.6515 63.758 51.9354V30.2762C65.0127 29.8089 65.9193 28.5668 65.9193 27.0968V18.0643H67L66.9998 15.8065ZM50.7903 10.1612H52.9516V15.8065H50.7903V10.1612ZM50.79 18.0643H52.9514V27.0965C52.9514 27.7198 52.4673 28.2256 51.8707 28.2256C51.2741 28.2256 50.79 27.7198 50.79 27.0965V18.0643ZM41.0643 66.6126C41.0643 67.2359 40.5802 67.7417 39.9836 67.7417H3.24199C2.64538 67.7417 2.16133 67.2359 2.16133 66.6126V3.38715C2.16133 2.76383 2.64538 2.2581 3.24199 2.2581H39.9836C40.5802 2.2581 41.0643 2.76383 41.0643 3.38715V66.6126ZM63.7578 27.0968C63.7578 27.7201 63.2737 28.2258 62.6771 28.2258C62.0805 28.2258 61.5965 27.7201 61.5965 27.0968V18.0643H63.7578V27.0968ZM63.758 15.8065H61.5967V10.1612H63.758V15.8065Z" fill="#CF000F"/>
<path d="M8.6453 62.0966H4.32265V64.3547H8.6453V62.0966Z" fill="#CF000F"/>
<path d="M38.9032 62.0966H34.5805V64.3547H38.9032V62.0966Z" fill="#CF000F"/>
</svg>
