<svg width="81" height="50" viewBox="0 0 81 50" fill="none" xmlns="http://www.w3.org/2000/svg">
<path d="M62.0503 14.4066V12.4066H60.0503H57.0376C56.6369 12.4066 56.312 12.0818 56.312 11.6811C56.312 9.07118 54.1963 6.95547 51.5864 6.95547H24.7925C22.031 6.95547 19.7925 9.19405 19.7925 11.9555V12.5747C19.7925 13.127 19.3447 13.5747 18.7925 13.5747H17.044C14.2826 13.5747 12.044 15.8133 12.044 18.5747V34.7687C12.044 37.5301 14.2826 39.7687 17.044 39.7687H24.8444C25.0697 39.7687 25.2884 39.8448 25.4651 39.9847L33.1732 46.0869C34.0565 46.7862 35.1501 47.1667 36.2767 47.1667H54.8163C57.5777 47.1667 59.8163 44.9281 59.8163 42.1667V38.99H67.4974V43.6092V45.6092H69.4974H73.6101H75.0302L75.4983 44.2685L78.8882 34.5586L79 34.2385V33.8994V23.2453V22.8749L78.8674 22.5291L76.216 15.6161C75.4745 13.6829 73.6182 12.4066 71.5476 12.4066H71.0548H69.0548V14.4066V19.8046H62.0503V14.4066Z" fill="#D9D9D9" fill-opacity="0.03" stroke="#CF000F" stroke-width="4"/>
<rect x="33.6755" y="1.55746" width="12.4598" height="6.22989" fill="#CF000F"/>
<rect x="33.6755" y="1.55746" width="12.4598" height="6.22989" fill="#CF000F"/>
<rect x="33.6755" y="1.55746" width="12.4598" height="6.22989" fill="#CF000F"/>
<rect x="5.81132" y="23.2453" width="6.77987" height="3.87421" fill="#CF000F"/>
<rect x="5.81132" y="23.2453" width="6.77987" height="3.87421" fill="#CF000F"/>
<rect x="5.81132" y="23.2453" width="6.77987" height="3.87421" fill="#CF000F"/>
<rect x="27.4456" width="24.1408" height="3.11495" fill="#CF000F"/>
<rect x="27.4456" width="24.1408" height="3.11495" fill="#CF000F"/>
<rect x="27.4456" width="24.1408" height="3.11495" fill="#CF000F"/>
<path d="M2.25996 42.6164L2.25996 31.9935L0 22.433L2.25996 10.7478L6.77987 9.68555L6.77987 42.6164H2.25996Z" fill="#CF000F"/>
<path d="M2.25996 42.6164L2.25996 31.9935L0 22.433L2.25996 10.7478L6.77987 9.68555L6.77987 42.6164H2.25996Z" fill="#CF000F"/>
<path d="M2.25996 42.6164L2.25996 31.9935L0 22.433L2.25996 10.7478L6.77987 9.68555L6.77987 42.6164H2.25996Z" fill="#CF000F"/>
</svg>
