<svg width="71" height="71" viewBox="0 0 71 71" fill="none" xmlns="http://www.w3.org/2000/svg">
<path d="M49.8469 16.9933C49.8469 15.1196 48.3219 13.5946 46.4482 13.5946H30.6558L49.8469 28.3571V16.9933ZM47.5811 23.7553L37.3171 15.8602H46.4482C47.0725 15.8602 47.5811 16.3688 47.5811 16.9931V23.7553Z" fill="#CF000F"/>
<path d="M40.7839 43.0495H15.8602C12.7367 43.0495 10.1957 45.5906 10.1957 48.714H12.4615C12.4615 46.8403 13.9865 45.3153 15.8602 45.3153H40.7839C42.6577 45.3153 44.1826 46.8403 44.1826 48.714H46.4484C46.4482 45.5906 43.9071 43.0495 40.7839 43.0495Z" fill="#CF000F"/>
<path d="M40.7839 36.2523H15.8602C13.9865 36.2523 12.4615 34.7273 12.4615 32.8536H10.1957C10.1957 35.977 12.7367 38.5181 15.8602 38.5181H40.7839C43.9074 38.5181 46.4484 35.977 46.4484 32.8536H44.1826C44.1822 34.7273 42.6574 36.2523 40.7839 36.2523Z" fill="#CF000F"/>
<path d="M65.4895 43.5198C63.0764 39.5468 60.5817 35.1194 60.0357 30.588H57.7847C57.6022 31.7209 57.1875 33.6536 56.6451 35.1434V13.5946C56.6451 10.4712 54.104 7.93011 50.9806 7.93011H24.9235V0H4.53139V8.04454C1.94964 8.5715 0 10.8599 0 13.5946V64.5745C0 67.6979 2.54107 70.239 5.66453 70.239H50.9798C53.4167 70.239 55.4808 68.6836 56.2782 66.5198C57.1245 66.7216 58.0026 66.8405 58.9099 66.8405C65.1566 66.8405 70.2388 61.79 70.2388 55.5433C70.2388 51.3093 67.9323 47.5414 65.4895 43.5198ZM20.3916 2.26581H22.6574V7.93011H20.3916V2.26581ZM15.8602 2.26581H18.126V7.93035H15.8602V2.26581ZM11.3288 7.93011V2.26581H13.5946V7.93035L11.3288 7.93011ZM6.79696 2.26581H9.06278V7.93035H6.79696V2.26581ZM50.9798 67.973H5.66453C3.79079 67.973 2.26581 66.448 2.26581 64.5742V13.5946C2.26581 11.7209 3.79079 10.1959 5.66453 10.1959H24.9235H50.9798C52.8536 10.1959 54.3786 11.7209 54.3786 13.5946V39.976C53.7193 41.1565 53.0237 42.3144 52.3302 43.4563C49.8876 47.4791 47.5811 51.2777 47.5811 55.5112C47.5811 60.0564 50.2773 63.9728 54.1485 65.7764C53.6601 67.0565 52.4287 67.973 50.9798 67.973ZM58.9099 64.5745C53.9127 64.5745 49.8469 60.5087 49.8469 55.5115C49.8469 51.9122 51.9938 48.3767 54.2663 44.6335C55.9271 41.8976 57.7397 38.9135 58.9099 35.5624C60.079 38.9135 61.8916 41.8976 63.5536 44.6335C65.8261 48.3764 67.973 51.9122 67.973 55.5115C67.9727 60.5084 63.9072 64.5745 58.9099 64.5745Z" fill="#CF000F"/>
<path d="M63.4413 55.5115C63.4413 58.0104 61.4089 60.0429 58.9097 60.0429V62.3087C62.6584 62.3087 65.7069 59.2602 65.7069 55.5115H63.4413Z" fill="#CF000F"/>
<path d="M7.93036 13.5946H5.66455V15.8604H7.93036V13.5946Z" fill="#CF000F"/>
<path d="M12.4615 13.5946H10.1957V15.8604H12.4615V13.5946Z" fill="#CF000F"/>
<path d="M16.9934 13.5946H14.7275V15.8604H16.9934V13.5946Z" fill="#CF000F"/>
<path d="M7.93036 62.3087H5.66455V64.5745H7.93036V62.3087Z" fill="#CF000F"/>
<path d="M12.4615 62.3087H10.1957V64.5745H12.4615V62.3087Z" fill="#CF000F"/>
</svg>
