<svg width="68" height="69" viewBox="0 0 68 69" fill="none" xmlns="http://www.w3.org/2000/svg">
<path d="M14.4792 43.2347C8.78372 43.2347 4.15009 47.8684 4.15009 53.5637C4.15009 59.2593 8.78372 63.8929 14.4792 63.8929C20.1746 63.8929 24.8082 59.2593 24.8082 53.5637C24.8082 47.8682 20.1746 43.2347 14.4792 43.2347ZM14.4792 61.0585C10.3465 61.0585 6.9843 57.6963 6.9843 53.5636C6.9843 49.431 10.3465 46.0688 14.4792 46.0688C18.6118 46.0688 21.974 49.431 21.974 53.5636C21.974 57.6963 18.6118 61.0585 14.4792 61.0585Z" fill="#CF000F"/>
<path d="M14.4792 49.864C12.4392 49.864 10.7795 51.5238 10.7795 53.5638C10.7795 55.6038 12.4392 57.2635 14.4792 57.2635C16.5192 57.2635 18.179 55.6038 18.179 53.5638C18.179 51.5238 16.5192 49.864 14.4792 49.864ZM14.4792 54.4292C14.002 54.4292 13.6137 54.0409 13.6137 53.5636C13.6137 53.0864 14.002 52.6981 14.4792 52.6981C14.9565 52.6981 15.3448 53.0864 15.3448 53.5636C15.3448 54.0409 14.9565 54.4292 14.4792 54.4292Z" fill="#CF000F"/>
<path d="M22.806 16.9311C25.7268 16.9311 28.1032 14.5548 28.1032 11.6339C28.1032 8.71313 25.727 6.33679 22.806 6.33679C19.885 6.33679 17.5089 8.71313 17.5089 11.6339C17.5089 14.5548 19.8852 16.9311 22.806 16.9311ZM22.806 9.17101C24.1641 9.17101 25.2689 10.2759 25.2689 11.6339C25.2689 12.992 24.1641 14.0969 22.806 14.0969C21.4479 14.0969 20.3431 12.992 20.3431 11.6339C20.3431 10.2759 21.4479 9.17101 22.806 9.17101Z" fill="#CF000F"/>
<path d="M58.9528 31.9209C60.1447 31.9209 61.111 30.9546 61.111 29.7626C61.111 28.5707 60.1447 27.6044 58.9528 27.6044C57.7608 27.6044 56.7945 28.5707 56.7945 29.7626C56.7945 30.9546 57.7608 31.9209 58.9528 31.9209Z" fill="#CF000F"/>
<path d="M63.6777 37.4731C66.2681 35.8799 68 33.0205 68 29.7628C68 26.5442 66.3092 23.7147 63.7707 22.1105L28.6379 1.56575L28.6412 1.57567C26.9244 0.575819 24.9317 0 22.806 0C17.698 0 13.3512 3.31037 11.7911 7.89739C11.7332 8.06792 0.44513 49.9789 0.367661 50.3149L0.367031 50.3175L0.367189 50.3173C0.127067 51.3612 0 52.4478 0 53.5636C0 61.5474 6.4954 68.0428 14.4792 68.0428C17.2195 68.0428 19.784 67.2773 21.971 65.9494C22.1593 65.8353 63.6274 37.504 63.6777 37.4731ZM56.993 38.5939L28.1693 58.2794C28.6802 56.8004 28.9585 55.214 28.9585 53.5637C28.9585 45.5799 22.4631 39.0845 14.4792 39.0845C11.1056 39.0845 7.99785 40.2445 5.5335 42.1862L12.341 16.7123C14.2301 20.5897 18.2108 23.268 22.806 23.268C29.2211 23.268 34.44 18.0489 34.44 11.634C34.44 10.3186 34.2174 9.05501 33.8132 7.87472L56.4035 21.0831C52.6522 22.1869 49.9051 25.659 49.9051 29.7626C49.9052 34.0785 52.9435 37.6959 56.993 38.5939ZM58.9527 35.9758C55.5268 35.9758 52.7395 33.1885 52.7395 29.7626C52.7395 26.3365 55.5268 23.5494 58.9527 23.5494C62.3786 23.5494 65.1659 26.3367 65.1659 29.7626C65.1659 33.1887 62.3786 35.9758 58.9527 35.9758ZM22.806 2.83422C27.6582 2.83422 31.6058 6.78181 31.6058 11.634C31.6058 16.4862 27.6582 20.4338 22.806 20.4338C17.9538 20.4338 14.0062 16.4862 14.0062 11.634C14.0062 6.78181 17.9537 2.83422 22.806 2.83422ZM2.83422 53.5637C2.83422 47.1427 8.05816 41.9187 14.4792 41.9187C20.9003 41.9187 26.1243 47.1427 26.1243 53.5637C26.1243 59.9848 20.9003 65.2088 14.4792 65.2088C8.05816 65.2088 2.83422 59.9848 2.83422 53.5637Z" fill="#CF000F"/>
</svg>
