<svg width="70" height="70" viewBox="0 0 70 70" fill="none" xmlns="http://www.w3.org/2000/svg">
<path d="M35 0C15.7003 0 0 15.7015 0 35C0 54.2985 15.7003 70 35 70C54.2997 70 70 54.2985 70 35C70 15.7015 54.2997 0 35 0ZM35 67.7419C16.9467 67.7419 2.25811 53.0542 2.25811 35C2.25811 16.9458 16.9467 2.25811 35 2.25811C53.0533 2.25811 67.7419 16.9458 67.7419 35C67.7419 53.0542 53.0533 67.7419 35 67.7419Z" fill="#CF000F"/>
<path d="M60.6257 30.8112L60.6302 30.8067C60.6278 30.8044 60.6269 30.8034 60.6245 30.801C58.6103 18.4732 47.8891 9.03223 35 9.03223C22.1109 9.03223 11.3897 18.4732 9.37671 30.8013C9.37433 30.8036 9.37339 30.8046 9.37101 30.807L9.37552 30.8115C9.15312 32.1752 9.0322 33.5741 9.0322 35.0003C9.0322 49.3185 20.6805 60.9681 35 60.9681C49.3195 60.9681 60.9678 49.3188 60.9678 35.0003C60.9678 33.5741 60.8469 32.1752 60.6257 30.8112ZM35 11.2903C45.7393 11.2903 54.8213 18.4732 57.7262 28.2833C51.336 23.3145 42.9437 20.3225 35 20.3225C27.0563 20.3225 18.6652 23.3145 12.2738 28.2845C15.1787 18.4732 24.2607 11.2903 35 11.2903ZM12.7444 43.0974C14.3195 41.7099 18.5092 38.3869 22.5806 38.3869C26.6959 38.3869 29.3547 41.4896 29.3547 46.2901C29.3547 50.8774 27.1035 54.9747 25.8718 56.8769C19.7931 54.3312 15.0151 49.315 12.7444 43.0974ZM44.1261 56.8784C42.8932 54.9804 40.6453 50.8933 40.6453 46.2903C40.6453 41.4896 43.3041 38.3872 47.4194 38.3872C51.4794 38.3872 55.6772 41.711 57.2544 43.0997C54.9839 49.3162 50.2057 54.3324 44.1261 56.8784ZM57.9761 40.7456C55.8218 38.9797 51.6852 36.1291 47.4196 36.1291C42.1018 36.1291 38.3874 40.3077 38.3874 46.2903C38.3874 51.1484 40.5327 55.396 41.945 57.6677C39.7479 58.3417 37.4165 58.7097 35.0005 58.7097C32.5845 58.7097 30.2524 58.3417 28.0554 57.6677C29.4678 55.396 31.6131 51.1487 31.6131 46.2903C31.6131 40.3077 27.8985 36.1291 22.5809 36.1291C18.3155 36.1291 14.1786 38.9799 12.0244 40.7456C11.5625 38.9019 11.2906 36.9848 11.2906 35C11.2906 33.9445 11.3842 32.9124 11.5186 31.8929C17.6955 26.1371 26.6127 22.5807 35.0002 22.5807C43.389 22.5807 52.3059 26.1371 58.4818 31.8929C58.6163 32.9124 58.7099 33.9442 58.7099 35C58.7099 36.9848 58.4377 38.9019 57.9761 40.7456Z" fill="#CF000F"/>
<path d="M35 25.9675C31.8872 25.9675 29.3547 28.5 29.3547 31.6128C29.3547 34.7256 31.8872 37.2581 35 37.2581C38.1128 37.2581 40.6453 34.7256 40.6453 31.6128C40.6453 28.5 38.1128 25.9675 35 25.9675ZM35 35C33.1326 35 31.6128 33.4802 31.6128 31.6128C31.6128 29.7454 33.1326 28.2256 35 28.2256C36.8674 28.2256 38.3872 29.7454 38.3872 31.6128C38.3872 33.4802 36.8674 35 35 35Z" fill="#CF000F"/>
<path d="M67.822 16.2264L69.9187 15.3876C67.5669 9.50425 60.5386 2.4748 55.8273 0.11853L54.8168 2.13836C59.0777 4.26891 65.6872 10.8872 67.822 16.2264Z" fill="#CF000F"/>
<path d="M27.0969 30.4838H24.8387V32.7419H27.0969V30.4838Z" fill="#CF000F"/>
<path d="M45.1613 30.4838H42.9031V32.7419H45.1613V30.4838Z" fill="#CF000F"/>
<path d="M33.8709 63.226H31.6128V65.4841H33.8709V63.226Z" fill="#CF000F"/>
<path d="M38.3872 63.226H36.1291V65.4841H38.3872V63.226Z" fill="#CF000F"/>
<path d="M2.17797 53.7736L0.0813255 54.6124C2.43427 60.4948 9.46254 67.5252 14.1727 69.8803L15.1832 67.8604C10.9223 65.7311 4.31279 59.1127 2.17797 53.7736Z" fill="#CF000F"/>
</svg>
