<svg width="70" height="70" viewBox="0 0 70 70" fill="none" xmlns="http://www.w3.org/2000/svg">
<g clip-path="url(#clip0_21_12)">
<path d="M66.6128 58.7095H65.4838V20.3224H66.6126C68.48 20.3224 69.9998 18.8027 69.9998 16.9353V12.4193C69.9998 10.552 68.48 9.03217 66.6126 9.03217H65.4836V6.77407H63.2254V9.03217H46.7577L42.2415 4.51597H24.8387V0H14.6774V4.51621H12.9839L9.5967 9.03217H6.77407V6.77407H4.51597V9.03217H3.38692C1.51979 9.03217 0 10.552 0 12.4193V16.9355C0 18.8029 1.51979 20.3227 3.38715 20.3227H4.51621V58.7097H3.38715C1.51979 58.7095 0 60.2293 0 62.0966V66.6128C0 68.4802 1.51979 70 3.38715 70H66.6128C68.4802 70 70 68.4802 70 66.6128V62.0966C70 60.2293 68.4802 58.7095 66.6128 58.7095ZM16.9355 2.2581H22.5808V4.51621H16.9355V2.2581ZM14.1129 6.77407H14.6774H24.8387H41.3066L43.5647 9.03217H12.4193L14.1129 6.77407ZM3.38715 18.0646C2.76383 18.0643 2.2581 17.5574 2.2581 16.9355V12.4193C2.2581 11.7972 2.76383 11.2903 3.38715 11.2903H66.6128C67.2362 11.2903 67.7419 11.7972 67.7419 12.4193V16.9355C67.7419 17.5577 67.2362 18.0646 66.6128 18.0646H3.38715ZM63.2257 20.3224V58.7095H60.9676V20.3224H63.2257ZM60.9676 64.3545C60.9676 64.9778 60.4619 65.4836 59.8385 65.4836C59.2152 65.4836 58.7095 64.9778 58.7095 64.3545C58.7095 63.7312 59.2152 63.2254 59.8385 63.2254C60.4619 63.2254 60.9676 63.7312 60.9676 64.3545ZM58.7095 20.3224V58.7095H56.4514V20.3224H58.7095ZM54.1935 20.3224V58.7095H51.9354V20.3224H54.1935ZM49.6773 20.3224V58.7095H47.4192V20.3224H49.6773ZM45.1611 20.3224V58.7095H42.903V20.3224H45.1611ZM40.6451 20.3224V58.7095H38.387V20.3224H40.6451ZM36.1289 20.3224V58.7095H33.8708V20.3224H36.1289ZM31.613 20.3224V58.7095H29.3549V20.3224H31.613ZM27.0968 20.3224V58.7095H24.8387V20.3224H27.0968ZM22.5806 20.3224V58.7095H20.3224V20.3224H22.5806ZM18.0646 20.3224V58.7095H15.8065V20.3224H18.0646ZM13.5484 20.3224V58.7095H11.2903V20.3224H13.5484ZM9.03217 20.3224V58.7095H6.77407V20.3224H9.03217ZM67.7417 66.6128C67.7417 67.2362 67.2359 67.7419 66.6126 67.7419H59.8385H3.38715C2.76383 67.7419 2.2581 67.2362 2.2581 66.6128V62.0966C2.2581 61.4733 2.76383 60.9676 3.38715 60.9676H59.8383C57.9712 60.9678 56.4514 62.4874 56.4514 64.3547C56.4514 66.2221 57.9712 67.7419 59.8385 67.7419C61.7059 67.7419 63.2257 66.2221 63.2257 64.3547C63.2257 62.4874 61.7061 60.9678 59.8388 60.9676H66.6126C67.2359 60.9676 67.7417 61.4733 67.7417 62.0966V66.6128Z" fill="#CF000F"/>
<path d="M12.4193 13.5484H10.1612V15.8065H12.4193V13.5484Z" fill="#CF000F"/>
<path d="M7.90337 13.5484H5.64526V15.8065H7.90337V13.5484Z" fill="#CF000F"/>
<path d="M16.9355 13.5484H14.6774V15.8065H16.9355V13.5484Z" fill="#CF000F"/>
<path d="M64.3547 13.5484H62.0966V15.8065H64.3547V13.5484Z" fill="#CF000F"/>
</g>
<defs>
<clipPath id="clip0_21_12">
<rect width="70" height="70" fill="white"/>
</clipPath>
</defs>
</svg>
