<svg width="50" height="58" viewBox="0 0 50 58" fill="none" xmlns="http://www.w3.org/2000/svg">
<path d="M23.2125 6.549C23.0338 7.1265 22.9375 7.73975 22.9375 8.375C22.9375 9.5135 23.8615 10.4375 25 10.4375H37.375C37.922 10.4375 38.4466 10.2202 38.8334 9.83341C39.2202 9.44661 39.4375 8.92201 39.4375 8.375C39.4377 7.756 39.345 7.14048 39.1625 6.549M23.2125 6.549C23.6031 5.28592 24.3878 4.18107 25.4517 3.39623C26.5156 2.6114 27.8029 2.18781 29.125 2.1875H33.25C36.033 2.1875 38.3842 4.0245 39.1625 6.549M23.2125 6.549C22.1785 6.61225 21.15 6.6865 20.1215 6.769C17.0112 7.0275 14.6875 9.67575 14.6875 12.797V18.6875M39.1625 6.549C40.1965 6.61225 41.225 6.6865 42.2535 6.769C45.3638 7.0275 47.6875 9.67575 47.6875 12.797V41.375C47.6875 43.016 47.0356 44.5898 45.8752 45.7502C44.7148 46.9106 43.141 47.5625 41.5 47.5625H35.3125M14.6875 18.6875H5.40625C3.6985 18.6875 2.3125 20.0735 2.3125 21.7812V52.7188C2.3125 54.4265 3.6985 55.8125 5.40625 55.8125H32.2188C33.9265 55.8125 35.3125 54.4265 35.3125 52.7188V47.5625M14.6875 18.6875H32.2188C33.9265 18.6875 35.3125 20.0735 35.3125 21.7812V47.5625M12.625 39.3125L16.75 43.4375L25 33.125" stroke="#CF000F" stroke-width="4" stroke-linecap="round" stroke-linejoin="round"/>
</svg>
