<svg width="1075" height="219" viewBox="0 0 1075 219" fill="none" xmlns="http://www.w3.org/2000/svg">
<path d="M1020.08 204.295C999.461 204.295 982.36 193.15 982.36 179.713C982.36 179.014 982.409 178.322 982.5 177.637L1014.06 178.921L1000.41 185.067C1000.32 185.11 1000.24 185.167 1000.18 185.233C1000.13 185.3 1000.1 185.374 1000.1 185.449C1000.1 185.572 1000.18 185.691 1000.31 185.778C1000.45 185.866 1000.63 185.915 1000.82 185.915H1056.55C1052.27 196.413 1037.42 204.295 1020.08 204.295ZM1020.08 155.131C1040.7 155.131 1057.8 166.276 1057.8 179.713C1057.8 180.406 1057.75 181.094 1057.66 181.775L1026.13 180.469L1039.81 174.359C1039.91 174.316 1039.98 174.259 1040.04 174.192C1040.09 174.126 1040.12 174.052 1040.12 173.977C1040.12 173.72 1039.8 173.511 1039.41 173.511H983.604C987.891 163.013 1002.74 155.131 1020.08 155.131ZM1074.18 182.459L1063.86 182.031C1063.95 181.267 1064 180.493 1064 179.713C1064 163.905 1044.34 151.09 1020.08 151.09C999.091 151.09 981.544 160.685 977.197 173.511H969.093C968.84 173.51 968.591 173.548 968.365 173.621C968.138 173.694 967.94 173.8 967.787 173.93L965.375 176.1C965.263 176.194 965.202 176.31 965.202 176.43C965.201 176.5 965.223 176.57 965.264 176.635C965.305 176.7 965.366 176.76 965.443 176.81C965.519 176.86 965.61 176.899 965.71 176.926C965.81 176.953 965.918 176.967 966.026 176.967L976.305 177.385C976.209 178.159 976.16 178.936 976.159 179.713C976.16 195.521 995.823 208.335 1020.08 208.335C1041.07 208.335 1058.61 198.741 1062.96 185.915H1071.11C1071.36 185.915 1071.61 185.877 1071.84 185.805C1072.06 185.732 1072.26 185.626 1072.41 185.495L1074.83 183.325C1074.92 183.246 1074.98 183.151 1075 183.051C1075.01 182.951 1074.98 182.85 1074.92 182.76C1074.85 182.669 1074.74 182.593 1074.61 182.54C1074.48 182.487 1074.33 182.459 1074.18 182.459Z" fill="white"/>
<g clip-path="url(#clip0_3_6909)">
<path d="M291.083 114.282H257.612L274.348 85.3292H307.819L291.083 114.282ZM324.555 114.282H358.026L341.29 85.3292H307.819L324.555 114.282ZM324.555 56.3765L307.819 27.4238L291.083 56.3765L307.819 85.3292L324.555 56.3765Z" fill="white"/>
</g>
<path d="M984.977 61.0046C983.96 60.7214 982.773 60.5514 980.342 60.2682C970.169 59.8151 945.13 58.8521 932.356 58.8521C919.582 58.8521 894.543 59.8151 884.369 60.2682C881.939 60.5514 880.752 60.7214 879.735 61.0046C876.513 61.7409 875.835 62.8738 875.835 65.1962V80.8863C875.835 83.152 878.265 84.738 879.961 85.0213C881.656 85.3611 882.73 85.4744 884.482 85.6443C893.526 86.2108 914.608 87.4003 932.356 87.4003C950.104 87.4003 971.13 86.2108 980.229 85.6443C981.982 85.4744 983.055 85.3611 984.751 85.0213C986.447 84.738 988.877 83.152 988.877 80.8863V65.1962C988.877 62.8738 988.199 61.7409 984.977 61.0046Z" fill="white"/>
<path d="M891.661 61.6277C896.634 44.2382 913.026 31.4936 932.525 31.4936C951.912 31.4936 968.303 44.1816 973.334 61.5144C973.334 61.571 973.334 61.6277 973.39 61.6843C976.273 61.3445 978.873 60.8347 980.682 60.3815C980.625 60.2682 980.625 60.2682 980.625 60.1549C974.916 39.4236 955.53 24.2432 932.525 24.2432C909.465 24.2432 890.021 39.5369 884.369 60.2682C886.913 60.948 888.778 61.2312 891.661 61.6277Z" fill="white"/>
<path d="M973.221 84.3982C973.164 84.5681 973.108 84.738 973.108 84.7947C967.795 101.731 951.63 114.023 932.525 114.023C913.252 114.023 897.03 101.561 891.83 84.3982C888.665 84.9646 887.591 85.1912 884.482 85.5877C890.304 106.149 909.578 121.216 932.525 121.216C955.473 121.216 974.803 106.092 980.569 85.531C977.799 85.2478 976.216 84.9646 973.221 84.3982Z" fill="white"/>
<path d="M892.735 61.571C893.921 61.0612 895.108 60.2682 896.917 59.7584C902.343 45.711 916.247 35.6851 932.582 35.6851C948.86 35.6851 962.764 45.6543 968.19 59.6452C968.19 59.7018 968.247 59.7584 968.247 59.7584C969.208 60.0983 971.921 61.1745 972.769 61.571H973.39C973.39 61.5144 973.334 61.4577 973.334 61.4011C968.303 44.0683 951.912 31.3803 932.525 31.3803C913.082 31.3803 896.691 44.125 891.661 61.5144C892 61.6277 892.508 61.571 892.735 61.571Z" fill="white"/>
<path d="M932.243 32.6264C950.443 32.6264 966.608 43.5019 972.712 61.4577C972.712 61.5144 972.769 61.571 972.769 61.6277H973.39C973.39 61.571 973.334 61.5144 973.334 61.4577C968.303 44.125 951.912 31.4369 932.525 31.4369C913.082 31.4369 896.691 44.1816 891.661 61.571C892.056 61.571 892.226 61.571 892.678 61.5144C898.161 44.5215 914.156 32.6264 932.243 32.6264Z" fill="white"/>
<path d="M972.203 84.4548C970.903 85.1912 969.264 85.8709 967.964 86.324C967.964 86.3807 967.851 86.5506 967.851 86.6073C962.199 100.202 948.521 109.831 932.525 109.831C916.417 109.831 902.682 100.088 897.087 86.3807C895.561 85.9842 893.356 84.9646 892.508 84.5115C892.169 84.5115 892 84.5115 891.83 84.4548C897.03 101.561 913.252 114.079 932.525 114.079C951.686 114.079 967.908 101.731 973.108 84.738C973.108 84.6814 973.164 84.5115 973.164 84.5115C972.938 84.3982 972.429 84.4548 972.203 84.4548Z" fill="white"/>
<path d="M984.073 62.1374C981.36 61.7976 979.551 61.8542 972.995 61.6277C972.712 61.6277 972.373 61.6277 972.09 61.571C960.221 61.1745 942.417 60.6081 932.356 60.6081C922.295 60.6081 904.434 61.1745 892.621 61.571C892.339 61.571 892 61.571 891.717 61.6277C885.161 61.8542 883.352 61.7976 880.639 62.1374C877.926 62.4773 875.835 63.6102 875.835 65.6493V80.2066C875.835 82.1891 878.378 83.8317 880.639 83.8317C880.639 83.8317 909.295 85.5877 932.356 85.6443C955.417 85.6443 984.073 83.8317 984.073 83.8317C986.334 83.8317 988.877 82.1891 988.877 80.2066V65.6493C988.877 63.6102 986.786 62.4773 984.073 62.1374Z" fill="white"/>
<path d="M972.203 84.4548C966.551 101.165 950.725 112.833 932.865 112.833C914.778 112.833 898.782 102.127 892.565 84.4548C892.339 84.4548 892.113 84.4548 891.887 84.3982C897.087 101.504 913.308 114.023 932.582 114.023C951.856 114.023 968.077 101.504 973.277 84.3982C972.882 84.3982 972.543 84.4548 972.203 84.4548Z" fill="white"/>
<path d="M972.203 84.4548C970.847 85.1912 969.208 85.8709 967.908 86.324C967.908 86.3807 967.795 86.5506 967.795 86.6073C965.986 90.9121 963.443 94.8205 960.221 98.1624C965.308 94.424 969.377 89.7793 972.203 84.4548Z" fill="white"/>
<path d="M905.904 99.182C902.117 95.5569 899.121 91.1953 897.143 86.324C895.617 85.9275 893.413 84.908 892.565 84.4548C893.469 86.3807 894.543 88.1366 895.73 89.8359C898.217 93.0646 901.269 96.01 904.66 98.4457C905.056 98.6722 905.508 98.9555 905.904 99.182Z" fill="#FFF5F5"/>
<path d="M891.83 84.3982C888.665 84.9646 887.591 85.1912 884.482 85.5877C884.709 86.494 884.991 87.3436 885.33 88.2499L891.83 84.3982Z" fill="white"/>
<path d="M955.304 68.5381C954.343 66.4423 954.682 66.6689 952.647 66.6123C952.477 66.5556 952.025 66.5556 951.404 66.5556C950.782 66.5556 950.669 66.5556 950.16 66.6123C948.238 66.6123 948.578 66.499 947.899 67.915C947.899 67.915 944.565 75.3919 943.151 78.5073L943.095 78.6206C942.812 79.187 942.982 79.187 943.434 79.187H946.43C946.656 79.187 946.769 79.0737 946.825 78.9604C946.825 78.9604 947.278 77.9975 947.843 76.6947H955.134C955.699 77.9975 956.095 78.9038 956.095 78.9604C956.151 79.1304 956.321 79.187 956.491 79.187H959.599C960.051 79.187 960.164 79.2437 959.995 78.8472C959.43 77.4877 955.812 69.7276 955.304 68.5381ZM948.973 74.0325C949.934 71.8234 950.838 69.671 950.838 69.6143C950.895 69.501 951.008 69.4444 951.178 69.4444C951.234 69.3878 951.404 69.3878 951.573 69.3878C951.686 69.3878 951.856 69.3878 951.912 69.4444C952.025 69.4444 952.138 69.501 952.195 69.671C952.421 70.294 953.269 72.1633 954.004 74.0325H948.973ZM909.013 66.4423C909.295 66.4423 909.352 66.5556 909.352 66.7822V78.6772C909.352 78.9604 909.295 79.0737 908.956 79.0737H906.074C905.734 79.0737 905.678 79.0171 905.678 78.6772V66.7822C905.678 66.5556 905.734 66.4423 905.96 66.4423H909.013ZM902.852 66.5556C903.191 66.5556 903.247 66.6689 903.247 66.9521V78.7905C903.247 79.1304 903.191 79.187 902.852 79.187H899.461C897.482 79.187 897.313 79.187 896.634 78.0542C895.278 75.9017 891.095 69.501 891.095 69.501V78.7905C891.095 79.1304 891.039 79.187 890.7 79.187H888.213C887.874 79.187 887.817 79.1304 887.817 78.7905V66.9521C887.817 66.6689 887.874 66.5556 888.213 66.5556H891.095C893.243 66.5556 893.526 66.499 894.317 67.6318C894.939 68.6514 899.969 76.4115 899.969 76.4115V66.9521C899.969 66.6689 900.026 66.5556 900.365 66.5556H902.852ZM976.895 66.5556C977.234 66.5556 977.29 66.6689 977.29 66.9521V78.7905C977.29 79.1304 977.234 79.187 976.895 79.187H973.503C971.525 79.187 971.356 79.187 970.677 78.0542C969.264 75.9017 965.138 69.501 965.138 69.501V78.7905C965.138 79.1304 965.082 79.187 964.743 79.187H962.256C961.917 79.187 961.86 79.1304 961.86 78.7905V66.9521C961.86 66.6689 961.917 66.5556 962.256 66.5556H965.138C967.286 66.5556 967.569 66.499 968.36 67.6318C969.038 68.6514 974.012 76.4115 974.012 76.4115V66.9521C974.012 66.6689 974.069 66.5556 974.408 66.5556H976.895ZM921.73 71.3703C923.934 71.5968 925.573 71.9933 926.026 74.0891C926.026 74.2591 926.082 74.8255 926.082 75.4486C926.082 75.8451 926.082 76.3549 925.969 76.808C925.573 78.7905 924.104 79.187 921.73 79.187H912.404C912.065 79.187 912.008 79.1304 912.008 78.7905V76.808C912.008 76.4681 912.065 76.4115 912.404 76.4115H921.843C922.239 76.4115 922.352 76.2982 922.408 76.015V75.1654C922.352 74.9388 922.295 74.5989 921.786 74.5423C920.713 74.4856 917.604 74.2024 915.513 73.9759C912.8 73.6926 912.121 72.5598 912.008 71.5402C911.952 71.2003 911.952 70.7472 911.952 70.3507C911.952 70.0108 911.952 69.501 912.008 69.1045C912.404 67.3486 913.704 66.499 916.078 66.499H925.121C925.46 66.499 925.573 66.5556 925.573 66.8388V68.878C925.573 69.1612 925.46 69.2745 925.121 69.2178H916.247C915.852 69.2178 915.682 69.3878 915.626 69.7843V70.2941C915.626 70.5773 915.795 70.8038 916.191 70.8605C917.208 71.0304 920.486 71.257 921.73 71.3703ZM937.725 71.3703C939.93 71.5968 941.569 71.9933 942.021 74.0891C942.021 74.2591 942.078 74.8255 942.078 75.4486C942.078 75.8451 942.078 76.3549 941.965 76.808C941.569 78.7905 940.099 79.187 937.725 79.187H928.456C928.117 79.187 928.06 79.1304 928.06 78.7905V76.808C928.06 76.4681 928.117 76.4115 928.456 76.4115H937.895C938.291 76.4115 938.404 76.2982 938.46 76.015V75.1654C938.404 74.9388 938.291 74.5989 937.838 74.5423C936.765 74.4856 933.656 74.2024 931.565 73.9759C928.852 73.6926 928.23 72.5598 928.06 71.5402C928.004 71.2003 928.004 70.7472 928.004 70.3507C928.004 70.0108 928.004 69.501 928.06 69.1045C928.456 67.3486 929.756 66.499 932.13 66.499H941.173C941.512 66.499 941.625 66.5556 941.625 66.8388V68.878C941.625 69.1612 941.512 69.2745 941.173 69.2178H932.299C931.904 69.2178 931.734 69.3878 931.678 69.7843V70.2941C931.678 70.5773 931.791 70.8038 932.243 70.8605C933.26 71.0304 936.538 71.257 937.725 71.3703Z" fill="#CF000F"/>
<g clip-path="url(#clip1_3_6909)">
<path fill-rule="evenodd" clip-rule="evenodd" d="M801.424 26.8307C774.509 26.8307 752.691 48.65 752.691 75.5638C752.691 102.478 774.509 124.297 801.424 124.297C828.337 124.297 850.157 102.478 850.157 75.5638C850.157 48.6505 828.337 26.8307 801.424 26.8307ZM801.424 119.928C776.922 119.928 757.06 100.066 757.06 75.5638C757.06 51.0631 776.922 31.2006 801.424 31.2006C825.924 31.2006 845.787 51.0631 845.787 75.5638C845.787 100.066 825.924 119.928 801.424 119.928Z" fill="white"/>
<path fill-rule="evenodd" clip-rule="evenodd" d="M791.711 42.4186C794.866 41.4975 798.137 41.0314 801.424 41.0344C804.792 41.0344 808.048 41.5168 811.126 42.416L801.424 63.9217L791.711 42.4186Z" fill="white"/>
<path fill-rule="evenodd" clip-rule="evenodd" d="M819.959 46.4254C823.595 48.745 826.767 51.7213 829.314 55.2022L813.39 90.4406L807.245 76.7771H795.602L789.458 90.4401L773.557 55.1694C776.099 51.7023 779.262 48.7376 782.887 46.4259L795.602 74.6344H807.285L819.959 46.4254ZM768.061 66.6271C767.283 69.5423 766.891 72.5467 766.893 75.5638C766.893 89.096 774.676 100.809 786.01 106.472L768.061 66.6271Z" fill="white"/>
<path fill-rule="evenodd" clip-rule="evenodd" d="M791.871 108.756C794.977 109.647 798.193 110.097 801.424 110.094C804.734 110.094 807.935 109.628 810.965 108.76L801.424 87.5701L791.871 108.756ZM816.836 106.472C828.17 100.809 835.953 89.096 835.953 75.5638C835.953 72.5005 835.554 69.5304 834.806 66.7026L816.836 106.472Z" fill="white"/>
</g>
<g clip-path="url(#clip2_3_6909)">
<path d="M677.567 22.5228C649.841 22.5228 627.36 45.0029 627.36 72.7297C627.36 100.457 649.841 122.937 677.567 122.937C705.294 122.937 727.774 100.457 727.774 72.7297C727.774 45.0029 705.294 22.5228 677.567 22.5228ZM677.567 25.7862C703.491 25.7862 724.507 46.802 724.507 72.7297C724.507 98.6532 703.495 119.669 677.567 119.669C651.64 119.669 630.628 98.6532 630.628 72.7297C630.628 46.8062 651.644 25.7862 677.567 25.7862ZM674.731 28.4221C673.35 28.4806 671.969 28.5978 670.58 28.7484L670.133 41.0659C671.118 40.8992 672.109 40.768 673.103 40.6726L673.396 32.3549L673.342 31.7818L673.522 32.3257L676.3 38.5555H678.835L681.613 32.3298L681.781 31.7818L681.739 32.3549L682.032 40.6726C683.002 40.7646 684.011 40.8985 685.002 41.0659L684.546 28.7484C683.167 28.593 681.782 28.4841 680.396 28.4221L677.664 35.2209L677.567 35.723L677.471 35.2209L674.731 28.4221ZM702.746 36.0535L696.29 46.2121C697.106 46.8397 698.182 47.7643 698.872 48.3961L704.951 45.2414L705.336 44.9527L705.047 45.346L701.901 51.4252C702.583 52.1574 703.566 53.3415 704.118 54.0611L714.285 47.6011C713.662 46.7945 713.02 46.0022 712.361 45.2247L705.922 49.4672L705.482 49.8521L705.809 49.3709L708.654 43.6975L706.646 41.6893L700.972 44.5343L700.491 44.8607L700.872 44.4172L705.131 37.9781C704.378 37.3422 703.662 36.7606 702.746 36.0535ZM650.372 38.3589C648.866 38.5137 647.703 39.5429 644.544 43.0658C643.448 44.3071 642.392 45.5824 641.377 46.8899L650.054 55.1196C652.928 51.9398 654.096 50.76 656.363 48.371C657.966 46.6765 658.874 44.731 657.267 42.8608C656.397 41.8482 654.932 41.6265 653.711 42.1286L653.594 42.1704L653.635 42.0616C653.786 41.5065 653.77 40.9192 653.59 40.373C653.409 39.8269 653.071 39.3461 652.619 38.9906C652.304 38.7427 651.944 38.5596 651.558 38.4519C651.173 38.3442 650.769 38.3098 650.372 38.3589ZM650.397 40.932C650.966 40.7772 651.556 41.183 651.686 41.7688C651.82 42.3545 651.451 42.9068 651.041 43.367C650.121 44.413 646.728 47.9609 646.728 47.9609L645.046 46.3585C646.791 44.2247 648.648 42.2834 649.489 41.5135C649.741 41.2505 650.053 41.0512 650.397 40.932ZM677.567 42.9528C670.197 42.9495 663.088 45.681 657.615 50.6183C652.143 55.5557 648.697 62.3477 647.945 69.6796V69.688C647.472 74.3397 648.101 79.0373 649.78 83.4011C651.459 87.7648 654.141 91.6723 657.61 94.8074C661.079 97.9426 665.237 100.217 669.747 101.448C674.258 102.679 678.995 102.831 683.575 101.892C690.289 100.511 696.321 96.8559 700.651 91.5425C704.981 86.2292 707.344 79.5839 707.34 72.7297C707.332 64.8363 704.193 57.2684 698.611 51.6873C693.029 46.1061 685.461 42.9678 677.567 42.9612V42.9528ZM654.401 43.9653C654.598 43.9653 654.803 44.0197 654.987 44.1452C655.355 44.3921 655.522 44.8146 655.43 45.233C655.322 45.7309 654.907 46.1995 654.573 46.5635L650.2 51.2495L648.443 49.5759C648.443 49.5759 651.736 46.0949 652.815 44.9778C653.242 44.5343 653.518 44.2665 653.811 44.1201C653.993 44.0259 654.197 43.973 654.401 43.9653ZM677.567 46.8648C680.965 46.8609 684.33 47.5273 687.47 48.8258C690.61 50.1242 693.463 52.0293 695.865 54.4318C698.268 56.8344 700.173 59.6872 701.471 62.8271C702.77 65.9669 703.436 69.332 703.432 72.7297H677.567V98.5947C674.17 98.5985 670.805 97.9321 667.665 96.6337C664.525 95.3352 661.672 93.4301 659.269 91.0276C656.867 88.625 654.962 85.7722 653.663 82.6324C652.365 79.4925 651.699 76.1274 651.702 72.7297H677.567V46.8648Z" fill="white"/>
</g>
<g clip-path="url(#clip3_3_6909)">
<path d="M603.493 51.2662C602.117 37.7982 593.159 34.9657 585.277 33.6729C581.319 33.0035 574.273 32.4219 569.729 32.2545C565.771 32.0035 556.475 31.878 553.684 31.878C550.931 31.878 541.592 32.0035 537.634 32.2545C533.132 32.4219 526.045 33.0076 522.087 33.6729C514.209 35.0075 505.243 37.8359 503.87 51.2621C503.535 54.9313 503.452 59.7261 503.494 64.8514C503.619 73.3531 504.33 79.106 504.749 83.11C505.038 85.8588 506.163 94.0719 507.623 98.3227C509.623 104.159 511.456 105.866 513.581 107.619C517.501 110.787 523.92 111.787 525.254 112.038C532.505 113.33 547.178 113.577 553.642 113.577C560.102 113.577 574.771 113.368 582.026 112.038C583.402 111.787 589.82 110.824 593.699 107.619C595.824 105.866 597.657 104.159 599.657 98.3227C601.121 94.0719 602.284 85.8588 602.577 83.11C602.995 79.106 603.744 73.3531 603.828 64.8514C603.995 59.7261 603.87 54.9355 603.493 51.2662ZM598.573 73.8552C597.782 84.6078 596.824 91.0301 595.448 95.6952C594.239 99.7829 592.783 102.49 590.573 104.452C586.946 107.745 581.942 108.452 579.026 108.87C572.691 109.828 562.06 110.121 553.684 110.121C545.304 110.121 534.672 109.787 528.338 108.866C525.422 108.452 520.418 107.745 516.79 104.452C514.623 102.49 513.125 99.7411 511.958 95.6952C510.581 91.072 509.623 84.6078 508.832 73.8552C508.372 67.3952 508.456 56.8894 509.167 51.2621C510.246 42.844 514.418 38.6308 523.338 37.0493C527.505 36.2962 533.128 35.7565 538.425 35.5054C542.676 35.2126 549.722 35.087 553.642 35.1289C557.558 35.087 564.604 35.2544 568.855 35.5054C574.189 35.7565 579.775 36.3004 583.942 37.0493C592.904 38.6308 597.075 42.8859 598.117 51.2621C598.95 56.8894 599.075 67.3952 598.577 73.8552M576.813 38.7563C574.52 49.0529 573.603 53.764 571.725 61.2239C569.934 68.3952 568.516 75.0225 566.139 78.2316C563.683 81.4825 560.428 82.1937 558.219 82.4406C557.052 82.5661 556.219 82.6079 553.759 82.6498C551.261 82.6498 550.425 82.5661 549.257 82.4406C547.048 82.1895 543.755 81.4825 541.341 78.2316C538.923 75.0225 537.547 68.3952 535.756 61.2239C533.794 53.8059 532.919 49.0529 530.584 38.7563C530.584 38.7563 528.292 38.84 527.25 38.9237C525.873 39.0074 524.79 39.1329 523.622 39.3002C523.622 39.3002 524.961 60.475 525.543 69.437C526.17 78.8591 527.292 94.7789 528.334 106.787C528.334 106.787 530.25 107.08 533.463 107.289C536.839 107.494 538.337 107.494 538.337 107.494C539.714 102.201 541.463 94.8626 543.383 91.7372C544.965 89.1934 547.425 88.9047 548.801 88.7374C550.969 88.4445 552.801 88.4027 553.68 88.4027C554.512 88.3608 556.345 88.4027 558.554 88.7374C559.93 88.9466 562.391 89.1976 563.972 91.7372C565.934 94.8626 567.641 102.197 569.018 107.494C569.018 107.494 570.516 107.452 573.892 107.285C575.61 107.21 577.322 107.043 579.022 106.783C580.063 94.7789 581.189 78.8968 581.812 69.437C582.398 60.475 583.733 39.3002 583.733 39.3002C582.561 39.1329 581.482 39.0074 580.105 38.9237C579.143 38.84 576.813 38.7563 576.813 38.7563Z" fill="white"/>
</g>
<g clip-path="url(#clip4_3_6909)">
<path d="M433.398 21.5843C405.672 21.6805 383.268 44.2389 383.364 71.9653C383.46 99.6917 406.018 122.094 433.744 121.998C461.47 121.903 483.873 99.3453 483.777 71.6189C483.682 43.8929 461.124 21.4885 433.398 21.5843ZM433.572 30.514C444.598 30.514 454.963 34.8084 462.759 42.6039C470.557 50.4002 474.85 60.7654 474.85 71.7913C474.85 82.8159 470.556 93.1815 462.759 100.978C454.963 108.773 444.598 113.067 433.572 113.067C422.545 113.067 412.18 108.773 404.383 100.978C396.586 93.1815 392.293 82.8159 392.293 71.7913C392.293 60.7654 396.586 50.4002 404.383 42.6039C412.179 34.8084 422.546 30.514 433.572 30.514ZM434.049 35.5079C430.474 35.5047 426.918 36.0244 423.493 37.0506C423.163 37.1506 422.914 37.2861 422.739 37.4564C422.566 37.6258 422.471 37.8338 422.456 38.0447C422.427 38.4668 422.685 38.8701 423.055 39.1881C426.306 41.97 430.673 46.1359 433.755 51.3014C432.027 51.3365 430.663 50.3805 429.489 49.2546C425.323 45.2904 420.988 42.4654 417.546 40.532C416.923 40.1839 416.246 40.0224 415.592 40.3981C411.796 42.6055 409.222 44.6954 406.208 48.1906C405.925 48.5187 405.853 48.8651 405.957 49.1496C406.061 49.4341 406.305 49.637 406.579 49.7822C409.804 51.4922 414.841 54.7339 419.49 58.9266C419.082 59.1902 418.597 59.3081 417.952 59.2169C417.208 59.1115 416.289 58.7642 415.195 58.191C410.935 55.9526 406.841 54.6657 403.719 53.8619C402.993 53.6758 402.186 53.8833 401.797 54.5577C399.79 58.0442 398.409 62.2059 397.755 66.4275C397.617 67.327 398.238 68.1349 399.13 68.2906C402.75 68.924 407.774 70.0918 412.151 72.9444C416.528 75.7969 420.261 80.3227 421.328 87.7261C421.412 88.3194 421.185 88.8662 420.77 89.1834C420.354 89.5014 419.748 89.603 419.014 89.2587C416.833 88.2365 414.653 87.2169 412.474 86.1944C412.234 86.0835 411.953 85.981 411.66 85.981H401.38C400.593 85.981 400.001 86.3684 399.757 86.9211C399.513 87.4738 399.622 88.1742 400.134 88.7608C402.599 91.5996 404.86 94.6626 406.793 97.9077C406.984 98.2298 407.274 98.393 407.649 98.393H412.136C412.46 98.3958 412.779 98.3087 413.057 98.1415C414.467 97.3144 415.877 96.4897 417.29 95.6634C417.507 95.5337 417.723 95.5346 418.03 95.5346H451.855C452.044 95.5346 452.207 95.5956 452.32 95.6944C452.433 95.7927 452.5 95.9253 452.5 96.1048V97.7692C452.5 98.4804 453.142 99.0252 453.844 98.9164C458.037 98.2451 461.933 96.332 465.028 93.4242C465.16 93.3004 465.265 93.1507 465.338 92.9845C465.41 92.8182 465.447 92.6389 465.447 92.4577C465.447 92.2765 465.41 92.0972 465.338 91.9309C465.265 91.7647 465.16 91.615 465.028 91.4912C461.933 88.5823 458.037 86.6687 453.844 85.9977C453.142 85.889 452.5 86.4354 452.5 87.1462V88.6679C452.5 88.8491 452.426 89.0583 452.307 89.211C452.188 89.3641 452.038 89.4562 451.878 89.4562C451.545 89.4562 451.218 89.4645 450.893 89.4562C450.381 89.4478 450.109 89.1549 449.955 88.7324C449.801 88.3102 449.806 87.7654 449.912 87.3809C452.407 78.4357 453.019 72.9983 452.99 69.0332C452.959 64.8368 452.852 60.6277 450.954 55.0715C449.134 49.7525 447.441 44.4845 438.626 36.502C438.005 35.9435 437.351 35.6598 436.514 35.5992C435.694 35.5384 434.872 35.508 434.049 35.5079ZM440.442 76.1107C443.056 76.1107 445.179 78.2332 445.179 80.8478C445.179 83.4569 443.056 85.5806 440.442 85.5806C437.828 85.5806 435.71 83.4569 435.71 80.8478C435.71 78.2337 437.829 76.1107 440.442 76.1107Z" fill="white"/>
</g>
<g clip-path="url(#clip5_3_6909)">
<path d="M889.197 204.591C886.685 187.679 905.81 173.975 926.729 172.366C939.521 187.449 915.75 201.863 889.197 204.591Z" fill="white"/>
<path d="M911.641 162.342C914.799 163.491 919.786 166.261 921.527 167.61C894.795 175.909 886.578 191.086 887.277 204.768C886.129 204.894 884.837 204.946 883.779 205.061C881.769 185.337 896.678 171.143 911.641 162.342Z" fill="white"/>
<path d="M890.722 157.042C894.543 157.439 900.249 158.62 903.388 159.582C888.461 176.4 881.016 185.923 882.092 205.176L878.666 205.301C878.953 178.24 883.223 172.836 890.722 157.042Z" fill="white"/>
<path d="M881.752 156.237C877.912 156.028 873.535 155.955 868.996 156.164C873.068 172.627 873.535 179.599 874.306 205.333C875.275 205.343 875.957 205.343 877.141 205.312C876.961 179.745 877.912 172.846 881.752 156.237Z" fill="white"/>
<path d="M860.42 157.042C856.598 157.439 850.911 158.62 847.771 159.582C862.68 176.4 870.144 185.923 869.049 205.176L872.494 205.301C872.207 178.24 867.937 172.836 860.42 157.042Z" fill="white"/>
<path d="M839.537 162.342C836.379 163.491 831.409 166.261 829.651 167.61C856.383 175.909 864.582 191.086 863.882 204.768C865.049 204.894 866.358 204.946 867.399 205.061C869.39 185.337 854.517 171.143 839.537 162.342Z" fill="white"/>
<path d="M861.963 204.591C864.457 187.679 845.349 173.975 824.448 172.366C811.621 187.449 835.41 201.863 861.963 204.591Z" fill="white"/>
</g>
<g clip-path="url(#clip6_3_6909)">
<path d="M276.263 149.213C269.8 149.213 263.798 151.337 258.905 154.938C254.011 151.337 248.01 149.213 241.546 149.213C235.083 149.213 229.082 151.337 224.188 154.938C219.295 151.337 213.385 149.213 206.83 149.213C200.367 149.213 194.365 151.337 189.472 154.938C184.67 151.337 178.669 149.213 172.113 149.213C156.14 149.213 143.121 162.047 143.121 177.836C143.121 193.624 156.14 206.459 172.113 206.459C178.577 206.459 184.578 204.335 189.472 200.734C194.365 204.335 200.367 206.459 206.83 206.459C213.293 206.459 219.295 204.335 224.188 200.734C228.989 204.335 234.991 206.459 241.546 206.459C248.01 206.459 254.011 204.335 258.905 200.734C263.706 204.335 269.707 206.459 276.263 206.459C292.236 206.459 305.255 193.624 305.255 177.836C305.255 162.047 292.236 149.213 276.263 149.213ZM258.905 192.609C255.396 188.639 253.272 183.468 253.272 177.836C253.272 172.204 255.396 167.033 258.905 163.063C262.413 167.033 264.537 172.204 264.537 177.836C264.537 183.468 262.413 188.639 258.905 192.609ZM224.188 192.609C220.68 188.639 218.556 183.468 218.556 177.836C218.556 172.204 220.68 167.033 224.188 163.063C227.697 167.033 229.82 172.204 229.82 177.836C229.82 183.468 227.697 188.639 224.188 192.609ZM189.472 192.609C185.963 188.639 183.839 183.468 183.839 177.836C183.839 172.204 185.963 167.033 189.472 163.063C192.98 167.033 195.104 172.204 195.104 177.836C195.196 183.468 192.98 188.639 189.472 192.609ZM149.123 177.836C149.123 165.371 159.464 155.215 172.113 155.215C176.822 155.215 181.254 156.6 184.947 159.093C180.515 164.078 177.838 170.634 177.838 177.836C177.838 185.038 180.515 191.593 184.947 196.579C181.254 198.98 176.915 200.457 172.113 200.457C159.464 200.457 149.123 190.301 149.123 177.836ZM193.996 196.579C198.428 191.593 201.105 185.038 201.105 177.836C201.105 170.634 198.428 164.078 193.996 159.093C197.689 156.692 202.029 155.215 206.83 155.215C211.631 155.215 215.971 156.6 219.664 159.093C215.232 164.078 212.462 170.634 212.462 177.836C212.462 185.038 215.14 191.593 219.664 196.579C215.971 198.98 211.631 200.457 206.83 200.457C202.121 200.457 197.689 198.98 193.996 196.579ZM228.712 196.579C233.144 191.593 235.914 185.038 235.914 177.836C235.914 170.634 233.237 164.078 228.712 159.093C232.406 156.692 236.745 155.215 241.546 155.215C246.348 155.215 250.687 156.6 254.38 159.093C249.949 164.078 247.179 170.634 247.179 177.836C247.179 185.038 249.856 191.593 254.38 196.579C250.687 198.98 246.348 200.457 241.546 200.457C236.745 200.457 232.406 198.98 228.712 196.579ZM276.263 200.457C271.554 200.457 267.122 199.072 263.429 196.579C267.861 191.593 270.631 185.038 270.631 177.836C270.631 170.634 267.953 164.078 263.429 159.093C267.122 156.692 271.462 155.215 276.263 155.215C288.912 155.215 299.253 165.371 299.253 177.836C299.253 190.301 288.912 200.457 276.263 200.457Z" fill="white"/>
</g>
<g clip-path="url(#clip7_3_6909)">
<path d="M589.313 208.294C585.528 208.194 581.354 207.861 577.659 207.364C561.929 205.248 548.747 199.853 541.409 192.53C538.297 189.424 536.325 186.012 535.66 182.582C535.444 181.465 535.393 180.918 535.393 179.713C535.393 178.508 535.444 177.961 535.66 176.844C536.097 174.589 537.135 172.265 538.667 170.11C542.132 165.238 548.211 160.901 556.187 157.609C569.481 152.124 586.888 149.951 603.839 151.661C623.737 153.669 640.106 160.93 646.602 170.631C649.571 175.065 650.299 179.882 648.71 184.59C647.792 187.308 646.01 190.025 643.5 192.53C636.547 199.469 624.311 204.702 609.624 207.016C603.055 208.052 596.284 208.478 589.313 208.294ZM597.991 204.633C605.956 204.139 612.681 202.969 619.235 200.935C624.435 199.321 629.283 197.086 633.004 194.588C634.88 193.329 636.18 192.266 637.652 190.791C639.399 189.04 640.527 187.504 641.445 185.623C642.472 183.519 642.869 181.869 642.869 179.713C642.869 177.544 642.446 175.807 641.405 173.71C640.506 171.897 639.359 170.345 637.652 168.635C635.145 166.123 632.168 164.051 628.233 162.081C620.866 158.394 611.649 155.981 601.381 155.053C595.694 154.538 589.233 154.538 583.528 155.052C569.092 156.352 556.7 160.637 549.033 166.98C548.061 167.785 546.327 169.535 545.6 170.446C543.002 173.703 541.775 177.217 542.055 180.604C542.359 184.294 544.021 187.547 547.258 190.791C549.709 193.249 552.624 195.292 556.415 197.209C565.048 201.574 575.655 204.075 588.131 204.688C589.54 204.758 596.618 204.718 597.991 204.633ZM557.525 194.181C557.456 194.152 557.344 194.067 557.276 193.991C557.152 193.853 557.151 193.753 557.135 180.534L557.119 167.215L556.955 167.043C556.799 166.88 556.756 166.87 556.162 166.854L555.534 166.836V165.996V165.156L560.054 165.14L564.575 165.124L564.767 165.286L564.959 165.447V170.249C564.959 175.525 564.944 175.327 565.324 175.327C565.559 175.327 565.641 175.229 566.952 173.368C570.426 168.437 572.337 165.755 572.509 165.569C572.934 165.11 572.741 165.128 577.139 165.127L581.076 165.125L581.226 165.275C581.411 165.46 581.48 165.712 581.396 165.892C581.343 166.006 579.64 168.536 573.69 177.334C573.041 178.295 572.859 178.608 572.861 178.765C572.863 178.928 573.285 179.562 575.089 182.108C583.06 193.358 583.086 193.395 583.11 193.622C583.129 193.793 583.098 193.888 582.979 194.027L582.823 194.208L578.711 194.224C574.656 194.241 574.595 194.239 574.296 194.111C574.13 194.039 573.924 193.906 573.839 193.814C573.754 193.723 571.88 191.114 569.674 188.018C567.467 184.921 565.618 182.351 565.563 182.306C565.41 182.179 565.129 182.239 565.039 182.419C564.977 182.541 564.96 183.808 564.959 188.217L564.958 193.858L564.808 194.033L564.658 194.208L561.154 194.22C559.226 194.227 557.593 194.209 557.525 194.181ZM588.752 194.153C588.648 194.107 588.529 193.995 588.487 193.903C588.428 193.772 588.411 190.812 588.411 180.483V167.231L588.229 167.049C588.054 166.873 588.027 166.867 587.452 166.867H586.856V165.996V165.125H591.458H596.061L596.264 165.307L596.467 165.488V179.675V193.863L596.295 194.035L596.122 194.208L592.531 194.222C589.654 194.233 588.902 194.219 588.752 194.153ZM602.128 194.164C601.935 194.053 601.852 193.914 601.85 193.697C601.849 193.588 602.732 190.858 603.812 187.632C604.893 184.406 606.611 179.274 607.631 176.229C608.651 173.184 609.726 169.981 610.021 169.112C610.316 168.242 610.557 167.454 610.557 167.361C610.557 167.268 610.504 167.126 610.439 167.045C610.332 166.913 610.256 166.895 609.708 166.867L609.095 166.836L609.078 165.981L609.061 165.125L614.583 165.126C618.209 165.126 620.186 165.148 620.339 165.191C620.467 165.226 620.602 165.313 620.64 165.384C620.718 165.529 621.337 167.36 624.256 176.074C629.005 190.251 630.091 193.523 630.091 193.657C630.091 193.876 629.967 194.094 629.801 194.17C629.696 194.218 628.591 194.239 626.184 194.239C623.008 194.239 622.701 194.23 622.506 194.13C622.388 194.07 622.241 193.951 622.178 193.865C622.115 193.779 621.632 192.365 621.106 190.723C616.084 175.073 616.223 175.5 616.11 175.374C615.985 175.235 615.89 175.237 615.761 175.379C615.659 175.492 615.465 176.088 612.735 184.69C611.943 187.188 611.088 189.875 610.836 190.662C610.585 191.449 610.262 192.464 610.119 192.917C609.839 193.808 609.715 194.021 609.398 194.153C609.125 194.267 602.326 194.277 602.128 194.164L602.128 194.164Z" fill="#FBF0F2"/>
</g>
<g clip-path="url(#clip8_3_6909)">
<path d="M736.69 149.609C706.652 149.609 682.298 162.246 682.298 177.83C682.298 193.42 706.652 206.063 736.69 206.063C766.727 206.063 791.081 193.426 791.081 177.83C791.081 162.234 766.727 149.609 736.69 149.609ZM736.69 193.948C732.222 193.948 728.576 186.889 728.347 178.008C731.035 178.197 733.83 178.3 736.69 178.3C739.549 178.3 742.344 178.197 745.032 178.008C744.803 186.884 741.157 193.948 736.69 193.948ZM728.898 170.955C730.113 164.677 733.144 160.222 736.69 160.222C740.235 160.222 743.266 164.677 744.481 170.955C741.986 171.133 739.384 171.231 736.69 171.231C733.995 171.231 731.393 171.133 728.898 170.955ZM736.69 153.691C730.857 153.691 725.881 160.698 724.044 170.48C712.986 169.098 705.265 165.944 705.265 162.28C705.265 157.338 719.333 153.33 736.69 153.33C754.046 153.33 768.114 157.338 768.114 162.28C768.114 165.944 760.393 169.098 749.335 170.48C747.498 160.698 742.523 153.691 736.69 153.691ZM690.097 176.775C690.097 171.993 692.391 167.504 696.387 163.651C696.344 163.92 696.316 164.195 696.316 164.471C696.316 170.497 707.582 175.634 723.301 177.526C723.286 177.962 723.286 178.404 723.286 178.845C723.286 190.077 727.211 199.59 732.636 202.818C708.797 201.665 690.097 190.444 690.097 176.775ZM740.743 202.818C746.168 199.59 750.093 190.077 750.093 178.845C750.093 178.398 750.086 177.962 750.078 177.526C765.79 175.634 777.063 170.502 777.063 164.471C777.063 164.195 777.035 163.92 776.992 163.651C780.988 167.515 783.282 171.993 783.282 176.775C783.282 190.444 764.582 201.665 740.743 202.818Z" fill="white"/>
</g>
<g clip-path="url(#clip9_3_6909)">
<path fill-rule="evenodd" clip-rule="evenodd" d="M205.368 27.276C221.355 35.683 232.274 52.4447 232.274 71.7652C232.274 91.0856 221.355 107.9 205.368 116.254V110.51C211.481 106.855 216.653 101.738 220.414 95.6807L205.368 89.5713V80.2766L221.877 93.1743C225.325 86.8037 227.258 79.5455 227.258 71.7652C227.258 55.3689 218.481 40.9569 205.368 33.0199V27.276ZM182.119 21.5843C190.478 21.5843 198.367 23.6208 205.368 27.276V33.0199C198.942 29.1558 191.419 26.8583 183.478 26.5972L189.224 67.6922L205.368 80.2766V89.5713L182.015 80.1199L158.818 89.6235V80.381L175.066 67.6922L180.761 26.5972C172.715 26.8583 165.244 29.1558 158.818 33.0199V27.276C165.767 23.6208 173.708 21.5843 182.119 21.5843ZM205.368 116.254C198.367 119.91 190.478 121.998 182.119 121.998C173.708 121.998 165.767 119.91 158.818 116.307V110.51C165.61 114.636 173.603 116.985 182.119 116.985C190.583 116.985 198.524 114.636 205.368 110.51V116.254ZM158.818 116.307C142.779 107.9 131.86 91.0856 131.86 71.7652C131.86 52.4447 142.779 35.683 158.818 27.276V33.0199C145.653 40.9569 136.875 55.3167 136.875 71.7652C136.875 79.5455 138.861 86.9082 142.309 93.2787L158.818 80.381V89.6235L143.824 95.7851C147.586 101.79 152.706 106.855 158.818 110.51V116.307Z" fill="white"/>
</g>
<g clip-path="url(#clip10_3_6909)">
<path d="M56.9952 180.529C56.8242 180.529 56.4965 180.37 55.9408 179.63C53.6148 176.477 50.4213 173.707 46.5595 171.493C43.5289 169.762 40.1646 168.366 36.575 167.35C36.031 167.189 35.4847 167.032 34.9362 166.879C30.1292 165.496 25.1465 164.068 20.52 162.117C20.0072 161.906 19.5004 161.687 19 161.46C19.9215 160.284 20.995 159.16 22.1825 158.133C23.9059 156.634 25.9092 155.317 28.1342 154.222C30.5232 153.059 33.1058 152.122 35.8197 151.435C41.6053 149.934 48.5355 149.197 56.9952 149.19C65.4645 149.197 72.39 149.934 78.1755 151.438C80.8915 152.123 83.4758 153.059 85.8657 154.222C88.103 155.325 90.1028 156.639 91.8175 158.13C93.005 159.16 94.0738 160.284 95 161.46C94.5107 161.682 93.993 161.906 93.48 162.124C88.844 164.075 83.8708 165.503 79.0542 166.883L77.4155 167.353C73.8294 168.371 70.4684 169.767 67.4405 171.496C63.577 173.711 60.3833 176.482 58.0592 179.637C57.5035 180.374 57.171 180.529 56.9952 180.529ZM56.9952 204.99C49.6612 204.983 43.7048 204.544 38.8027 203.652C33.991 202.78 29.9915 201.439 26.5667 199.543C23.9415 198.076 21.7016 196.275 19.9548 194.228C18.3182 192.318 17.0252 190.263 16.1073 188.114C14.6757 184.773 13.9282 181.297 13.889 177.797C13.889 175.466 14.1123 173.257 14.5303 171.223C19.7838 173.284 24.757 174.318 29.1602 175.235L30.1815 175.442C36.309 176.725 41.173 178.406 45.0728 180.588C47.329 181.861 49.3003 183.331 50.9152 184.96C52.668 186.716 54.0645 188.722 55.081 190.925C55.537 191.925 56.031 192.544 56.9952 192.544C57.9785 192.544 58.4583 191.921 58.919 190.925C60.7321 186.819 64.2238 183.214 68.9272 180.592C72.8223 178.406 77.691 176.725 83.8185 175.442L84.8445 175.235C89.243 174.318 94.2163 173.284 99.465 171.223C99.8925 173.26 100.111 175.466 100.111 177.794C100.111 179.378 99.8925 183.549 97.9023 188.114C96.9849 190.263 95.6935 192.318 94.0595 194.228C92.3072 196.276 90.0608 198.077 87.4285 199.543C83.9942 201.439 79.9948 202.78 75.202 203.652C70.2858 204.544 64.334 204.983 56.9952 204.99ZM103.032 154.651C93.9645 147.561 79.3298 144.31 56.9952 144.293C34.6702 144.31 20.0355 147.558 10.9678 154.647C4.2275 159.907 0 167.187 0 177.064C0 182.525 1.8525 196.431 16.929 203.61C25.954 207.906 37.6105 210.686 56.9952 210.707C76.3895 210.686 88.0413 207.906 97.071 203.61C112.143 196.431 114 182.521 114 177.064C114 167.215 109.739 159.883 103.028 154.644L103.032 154.651Z" fill="#FDF9F9"/>
</g>
<g clip-path="url(#clip11_3_6909)">
<path d="M455.114 184.768C455.103 184.742 455.097 184.714 455.096 184.683C455.097 184.691 455.097 184.694 455.097 184.699C455.124 184.988 455.201 185.533 455.263 185.941C455.359 185.758 455.455 185.564 455.556 185.358C455.633 185.202 455.595 185.153 455.528 185.129C455.336 185.06 455.14 184.916 455.114 184.768Z" fill="white"/>
<path d="M458.447 180.378C458.474 180.689 458.712 180.727 458.907 180.454C458.958 180.378 459.017 180.286 459.086 180.181C459.031 180.108 458.975 180.037 458.916 179.964C458.645 179.646 457.999 178.958 457.374 178.418C457.996 179.005 458.375 179.721 458.447 180.378Z" fill="white"/>
<path d="M445.98 158.98C446.009 159.02 446.034 159.063 446.059 159.109C446.034 159.06 446.009 159.014 445.98 158.98Z" fill="white"/>
<path d="M420.439 149.213C374.566 149.213 337.38 162.026 337.38 177.836C337.38 193.644 374.566 206.459 420.439 206.459C466.307 206.459 503.492 193.644 503.492 177.836C503.492 162.026 466.307 149.213 420.439 149.213ZM420.439 151.692C464.7 151.692 500.575 163.395 500.575 177.836C500.575 192.277 464.7 203.982 420.439 203.982C376.178 203.982 340.301 192.277 340.301 177.836C340.301 163.395 376.178 151.692 420.439 151.692ZM398.769 156.342C397.59 156.346 396.405 156.392 395.213 156.489C387.29 157.15 379.75 161.566 379.736 168.271C379.728 171.671 382.169 174.426 385.951 174.305C390.397 174.157 394.046 170.63 395.956 166.185C396.681 164.498 395.338 163.798 394.699 164.769C393.559 166.518 391.952 167.876 390.214 168.72C388.122 169.733 385.887 169.46 385.21 167.778C384.257 165.406 386.238 161.856 390.758 160.186C397.286 157.793 404.117 159.376 410.69 160.598C410.784 160.598 411.133 160.791 410.823 160.95C409.646 161.585 408.488 162.103 406.682 163.641C405.388 164.739 403.694 166.2 402.383 167.791C401.082 169.36 400.16 170.759 398.939 172.31C398.77 172.534 398.56 172.524 398.563 172.524C395.589 173.021 392.677 173.354 390.012 175.19C389.461 175.566 389.222 176.235 389.556 176.747C389.857 177.2 390.543 177.249 391.021 176.905C392.677 175.678 394.382 175.101 396.337 175.047C396.422 175.053 396.463 175.067 396.487 175.119C396.502 175.148 396.493 175.21 396.458 175.256C393.529 179.279 392.796 180.187 390.593 182.682C389.466 183.964 388.357 185.046 387.118 186.172C382.115 190.774 376.735 190.695 374.804 187.809C373.651 186.078 373.803 184.26 374.559 182.752C375.489 180.904 377.371 179.551 378.935 178.761C379.515 178.467 379.682 177.732 379.101 177.062C378.731 176.625 377.835 176.548 377.168 176.669C375.119 177.044 372.697 178.577 371.267 180.423C369.654 182.494 368.849 185.009 369.119 187.831C369.605 192.923 373.839 195.864 378.646 195.83C382.472 195.8 386.076 194.653 390.411 190.295C394.453 186.231 398.134 180.16 401.582 174.53C401.69 174.35 401.767 174.253 402.291 174.189C404.454 173.921 407.646 173.616 409.693 173.499C410.148 173.474 410.24 173.479 410.423 173.704C410.956 174.37 411.757 174.935 412.398 175.279C412.711 175.447 412.86 175.531 413.105 175.536C413.408 175.542 413.644 175.38 413.796 175.209C414.014 174.973 414.074 174.665 413.956 174.467C413.834 174.258 412.406 173.474 412.364 173.158C412.333 172.96 412.552 172.912 412.552 172.912C413.6 172.587 414.692 171.917 415.353 170.662C416.003 169.427 416.109 167.778 414.92 166.862C413.876 166.057 412.3 166.184 411.042 167.302C409.812 168.387 409.404 169.965 409.571 171.349C409.6 171.589 409.588 171.67 409.258 171.698C407.366 171.847 405.543 171.899 403.517 172.005C403.381 172.015 403.338 171.927 403.417 171.834C405.751 167.819 409.236 164.96 413.09 162.144C413.346 161.955 413.268 161.594 413.258 161.293C420.217 162.79 426.942 165.576 434.162 165.517C437.148 165.493 440.006 165.043 442.739 163.559C445.142 162.261 446.116 161.061 446.188 159.814C446.244 158.951 445.639 158.407 444.776 158.592C437.481 160.252 430.522 160.233 423.264 159.363C414.975 158.367 407.02 156.316 398.769 156.342ZM413.33 167.977C413.5 167.986 413.66 168.043 413.789 168.152C414.173 168.477 413.992 169.289 413.603 169.851C413.179 170.47 412.459 171.005 411.803 171.136C411.671 171.16 411.557 171.104 411.502 170.815C411.396 170.051 411.647 169.026 412.472 168.305C412.73 168.079 413.045 167.962 413.33 167.977ZM471.894 168.125C470.567 168.125 468.827 168.128 467.445 168.128C467.116 168.128 466.946 168.168 466.79 168.471C466.281 169.439 460.064 178.663 458.907 180.454C458.712 180.727 458.474 180.689 458.446 180.378C458.329 179.314 457.401 178.092 455.939 177.507C454.825 177.059 453.736 176.978 452.603 177.127C450.559 177.399 448.737 178.467 447.136 179.671C444.722 181.488 442.64 183.843 439.951 185.583C438.484 186.53 436.474 187.356 435.13 186.123C433.913 185.006 434.05 182.524 435.912 180.605C436.108 180.404 436.344 180.572 436.307 180.753C436.131 181.621 436.347 182.484 437.012 183.089C437.824 183.81 438.987 183.892 439.982 183.411C441.156 182.835 441.846 181.723 442.047 180.46C442.359 178.501 440.836 176.774 438.931 176.635C437.383 176.528 435.899 177.061 434.453 178.243C433.729 178.839 433.316 179.279 432.689 180.162C432.536 180.379 432.302 180.401 432.309 180.08C432.382 177.572 431.334 176.162 429.24 176.115C427.615 176.078 425.879 176.95 424.526 178.018C423.042 179.198 421.745 180.761 420.355 182.23C420.182 182.411 420.031 182.403 419.983 182.052C419.941 180.39 419.519 178.781 418.742 177.638C418.467 177.241 417.889 177.044 417.404 177.313C417.179 177.434 416.398 177.79 415.83 178.243C415.548 178.473 415.439 178.806 415.562 179.233C416.313 181.714 416.147 184.536 415.131 186.92C414.197 189.102 412.382 191.072 410.249 191.738C408.844 192.179 407.383 191.963 406.479 190.729C405.237 189.027 405.739 186.066 407.589 183.608C409.223 181.443 411.584 180.068 413.941 179.183C414.218 179.077 414.275 178.901 414.197 178.667C414.069 178.283 413.865 177.762 413.781 177.523C413.565 176.954 412.96 176.861 412.221 176.941C410.509 177.138 408.965 177.719 407.439 178.527C403.445 180.645 401.442 184.746 400.563 186.939C400.141 187.992 399.779 188.65 399.312 189.233C398.682 190.016 397.892 190.729 396.446 191.987C396.316 192.102 396.218 192.343 396.328 192.566C396.476 192.868 397.227 193.919 397.439 194.013C397.675 194.128 397.948 193.968 398.057 193.89C399.069 193.211 400.279 192.135 400.872 191.405C401.079 191.155 401.292 191.26 401.402 191.64C401.955 193.592 403.403 195.186 405.404 195.853C409.067 197.076 412.867 195.306 415.735 192.224C417.558 190.265 418.215 189.005 418.913 188.149C420.097 186.696 422.433 183.447 425.214 181.36C426.234 180.591 427.442 180.004 428.049 180.394C428.536 180.706 428.693 181.433 427.911 182.841C425.076 187.968 420.903 193.993 420.137 195.454C419.998 195.708 420.119 195.907 420.387 195.907C421.871 195.9 423.342 195.903 424.69 195.903C424.914 195.893 425.015 195.792 425.127 195.635C427.303 192.261 429.351 189.05 431.547 185.731C431.67 185.536 431.783 185.687 431.788 185.773C431.833 186.543 432.024 187.596 432.486 188.288C433.316 189.567 434.492 190.117 435.796 190.125C436.834 190.136 437.359 189.98 438.478 189.567C439.389 189.232 440.12 188.793 440.681 188.396C441.009 188.171 441.066 188.548 441.057 188.606C440.554 191.284 441.176 194.457 443.864 195.773C447.081 197.343 450.615 195.136 452.649 193.143C452.847 192.951 453.061 192.971 453.082 193.385C453.125 194.146 453.472 195.049 454.107 195.681C455.812 197.374 459.25 196.703 462.701 194.058C464.917 192.365 467.235 189.973 469.329 187.439C469.407 187.342 469.464 187.183 469.315 187.024C468.996 186.694 468.534 186.315 468.218 186.024C468.074 185.903 467.862 185.938 467.74 186.029C465.594 188.05 463.662 190.355 460.869 192.262C459.928 192.912 458.427 193.437 457.752 192.534C457.49 192.184 457.519 191.698 457.779 191.061C458.594 189.05 471.485 169.617 472.154 168.471C472.269 168.272 472.148 168.125 471.894 168.125ZM453.83 180.275C454.168 180.272 454.484 180.336 454.772 180.473C456.359 181.223 455.853 183.044 455.142 184.473C455.089 184.583 455.086 184.677 455.114 184.768C455.14 184.916 455.336 185.06 455.528 185.129C455.595 185.153 455.633 185.202 455.556 185.358C455.008 186.521 454.504 187.192 453.817 188.202C453.186 189.136 452.474 189.865 451.612 190.565C450.312 191.631 448.506 192.791 447.013 192.011C446.35 191.67 446.064 190.752 446.077 190.007C446.111 187.916 447.048 185.768 448.783 183.658C450.502 181.563 452.368 180.288 453.83 180.275Z" fill="white"/>
</g>
<defs>
<clipPath id="clip0_3_6909">
<rect width="100.414" height="100.414" fill="white" transform="translate(257.612 20.6459)"/>
</clipPath>
<clipPath id="clip1_3_6909">
<rect width="100.414" height="100.414" fill="white" transform="translate(751.235 25.3381)"/>
</clipPath>
<clipPath id="clip2_3_6909">
<rect width="100.414" height="100.414" fill="white" transform="translate(627.36 22.5228)"/>
</clipPath>
<clipPath id="clip3_3_6909">
<rect width="100.414" height="100.414" fill="white" transform="translate(503.485 22.5228)"/>
</clipPath>
<clipPath id="clip4_3_6909">
<rect width="100.414" height="100.414" fill="white" transform="translate(383.364 21.5843)"/>
</clipPath>
<clipPath id="clip5_3_6909">
<rect width="109.798" height="63.9695" fill="white" transform="translate(820.681 149.213)"/>
</clipPath>
<clipPath id="clip6_3_6909">
<rect width="162.134" height="57.2453" fill="white" transform="translate(143.121 149.213)"/>
</clipPath>
<clipPath id="clip7_3_6909">
<rect width="114.138" height="57.2453" fill="white" transform="translate(535.393 151.09)"/>
</clipPath>
<clipPath id="clip8_3_6909">
<rect width="109.798" height="57.2453" fill="white" transform="translate(681.79 149.213)"/>
</clipPath>
<clipPath id="clip9_3_6909">
<rect width="100.414" height="100.414" fill="white" transform="translate(131.86 21.5843)"/>
</clipPath>
<clipPath id="clip10_3_6909">
<rect width="114" height="83" fill="white" transform="translate(0 136)"/>
</clipPath>
<clipPath id="clip11_3_6909">
<rect width="166.112" height="57.2453" fill="white" transform="translate(337.38 149.213)"/>
</clipPath>
</defs>
</svg>
