<svg width="50" height="50" viewBox="0 0 50 50" fill="none" xmlns="http://www.w3.org/2000/svg">
<rect width="50" height="50" fill="#CF000F"/>
<path d="M22.7383 33.8867V38H9.85352V33.8867H22.7383ZM11.5586 12.4062V38H6.28516V12.4062H11.5586ZM39.0859 31.3027C39.0859 30.8457 39.0156 30.4355 38.875 30.0723C38.7461 29.6973 38.5 29.3574 38.1367 29.0527C37.7734 28.7363 37.2637 28.4258 36.6074 28.1211C35.9512 27.8164 35.1016 27.5 34.0586 27.1719C32.8984 26.7969 31.7969 26.375 30.7539 25.9062C29.7227 25.4375 28.8086 24.8926 28.0117 24.2715C27.2266 23.6387 26.6055 22.9062 26.1484 22.0742C25.7031 21.2422 25.4805 20.2754 25.4805 19.1738C25.4805 18.1074 25.7148 17.1406 26.1836 16.2734C26.6523 15.3945 27.3086 14.6445 28.1523 14.0234C28.9961 13.3906 29.9922 12.9043 31.1406 12.5645C32.3008 12.2246 33.5723 12.0547 34.9551 12.0547C36.8418 12.0547 38.4883 12.3945 39.8945 13.0742C41.3008 13.7539 42.3906 14.6855 43.1641 15.8691C43.9492 17.0527 44.3418 18.4062 44.3418 19.9297H39.1035C39.1035 19.1797 38.9453 18.5234 38.6289 17.9609C38.3242 17.3867 37.8555 16.9355 37.2227 16.6074C36.6016 16.2793 35.8164 16.1152 34.8672 16.1152C33.9531 16.1152 33.1914 16.2559 32.582 16.5371C31.9727 16.8066 31.5156 17.1758 31.2109 17.6445C30.9062 18.1016 30.7539 18.6172 30.7539 19.1914C30.7539 19.625 30.8594 20.0176 31.0703 20.3691C31.293 20.7207 31.6211 21.0488 32.0547 21.3535C32.4883 21.6582 33.0215 21.9453 33.6543 22.2148C34.2871 22.4844 35.0195 22.748 35.8516 23.0059C37.2461 23.4277 38.4707 23.9023 39.5254 24.4297C40.5918 24.957 41.4824 25.5488 42.1973 26.2051C42.9121 26.8613 43.4512 27.6055 43.8145 28.4375C44.1777 29.2695 44.3594 30.2129 44.3594 31.2676C44.3594 32.3809 44.1426 33.377 43.709 34.2559C43.2754 35.1348 42.6484 35.8789 41.8281 36.4883C41.0078 37.0977 40.0293 37.5605 38.8926 37.877C37.7559 38.1934 36.4844 38.3516 35.0781 38.3516C33.8125 38.3516 32.5645 38.1875 31.334 37.8594C30.1035 37.5195 28.9844 37.0098 27.9766 36.3301C26.9805 35.6504 26.1836 34.7832 25.5859 33.7285C24.9883 32.6738 24.6895 31.4258 24.6895 29.9844H29.9805C29.9805 30.7812 30.1035 31.4551 30.3496 32.0059C30.5957 32.5566 30.9414 33.002 31.3867 33.3418C31.8438 33.6816 32.3828 33.9277 33.0039 34.0801C33.6367 34.2324 34.3281 34.3086 35.0781 34.3086C35.9922 34.3086 36.7422 34.1797 37.3281 33.9219C37.9258 33.6641 38.3652 33.3066 38.6465 32.8496C38.9395 32.3926 39.0859 31.877 39.0859 31.3027Z" fill="white"/>
</svg>
