<svg width="163" height="50" viewBox="0 0 163 50" fill="none" xmlns="http://www.w3.org/2000/svg">
<rect width="50" height="50" fill="#CF000F"/>
<path d="M64.9141 38.3906C63.2734 38.3906 61.8021 38.1302 60.5 37.6094C59.1979 37.0755 58.0911 36.3398 57.1797 35.4023C56.2812 34.4648 55.5911 33.3776 55.1094 32.1406C54.6276 30.8906 54.3867 29.5625 54.3867 28.1562V27.375C54.3867 25.7734 54.6146 24.3086 55.0703 22.9805C55.526 21.6523 56.1771 20.5 57.0234 19.5234C57.8828 18.5469 58.9245 17.7982 60.1484 17.2773C61.3724 16.7435 62.7526 16.4766 64.2891 16.4766C65.7865 16.4766 67.1146 16.724 68.2734 17.2188C69.4323 17.7135 70.4023 18.4167 71.1836 19.3281C71.9779 20.2396 72.5768 21.3333 72.9805 22.6094C73.3841 23.8724 73.5859 25.2786 73.5859 26.8281V29.1719H56.7891V25.4219H68.0586V24.9922C68.0586 24.2109 67.9154 23.5143 67.6289 22.9023C67.3555 22.2773 66.9388 21.7826 66.3789 21.418C65.819 21.0534 65.1029 20.8711 64.2305 20.8711C63.4883 20.8711 62.8503 21.0339 62.3164 21.3594C61.7826 21.6849 61.3464 22.1406 61.0078 22.7266C60.6823 23.3125 60.4349 24.0026 60.2656 24.7969C60.1094 25.5781 60.0312 26.4375 60.0312 27.375V28.1562C60.0312 29.0026 60.1484 29.7839 60.3828 30.5C60.6302 31.2161 60.9753 31.8346 61.418 32.3555C61.8737 32.8763 62.4206 33.2799 63.0586 33.5664C63.7096 33.8529 64.4453 33.9961 65.2656 33.9961C66.2812 33.9961 67.2253 33.8008 68.0977 33.4102C68.9831 33.0065 69.7448 32.401 70.3828 31.5938L73.1172 34.5625C72.6745 35.2005 72.069 35.8125 71.3008 36.3984C70.5456 36.9844 69.6341 37.4661 68.5664 37.8438C67.4987 38.2083 66.2812 38.3906 64.9141 38.3906ZM82.4141 21.4766V38H76.7891V16.8672H82.082L82.4141 21.4766ZM88.7812 16.7305L88.6836 21.9453C88.4102 21.9062 88.0781 21.8737 87.6875 21.8477C87.3099 21.8086 86.9648 21.7891 86.6523 21.7891C85.8581 21.7891 85.168 21.8932 84.582 22.1016C84.0091 22.2969 83.5273 22.5898 83.1367 22.9805C82.7591 23.3711 82.4727 23.8464 82.2773 24.4062C82.0951 24.9661 81.9909 25.6042 81.9648 26.3203L80.832 25.9688C80.832 24.6016 80.9688 23.3451 81.2422 22.1992C81.5156 21.0404 81.9128 20.0312 82.4336 19.1719C82.9674 18.3125 83.6185 17.6484 84.3867 17.1797C85.1549 16.7109 86.0339 16.4766 87.0234 16.4766C87.3359 16.4766 87.6549 16.5026 87.9805 16.5547C88.306 16.5938 88.5729 16.6523 88.7812 16.7305ZM98.9766 33.8984L103.664 16.8672H109.543L102.414 38H98.8594L98.9766 33.8984ZM95.7539 16.8672L100.461 33.918L100.559 38H96.9844L89.8555 16.8672H95.7539ZM118 16.8672V38H112.355V16.8672H118ZM112.004 11.3594C112.004 10.5391 112.29 9.86198 112.863 9.32812C113.436 8.79427 114.204 8.52734 115.168 8.52734C116.118 8.52734 116.88 8.79427 117.453 9.32812C118.039 9.86198 118.332 10.5391 118.332 11.3594C118.332 12.1797 118.039 12.8568 117.453 13.3906C116.88 13.9245 116.118 14.1914 115.168 14.1914C114.204 14.1914 113.436 13.9245 112.863 13.3906C112.29 12.8568 112.004 12.1797 112.004 11.3594ZM131.379 33.9961C132.069 33.9961 132.681 33.8659 133.215 33.6055C133.749 33.332 134.165 32.9544 134.465 32.4727C134.777 31.9779 134.94 31.3984 134.953 30.7344H140.246C140.233 32.2188 139.836 33.5404 139.055 34.6992C138.273 35.8451 137.225 36.75 135.91 37.4141C134.595 38.0651 133.124 38.3906 131.496 38.3906C129.855 38.3906 128.423 38.1172 127.199 37.5703C125.988 37.0234 124.979 36.2682 124.172 35.3047C123.365 34.3281 122.759 33.1953 122.355 31.9062C121.952 30.6042 121.75 29.2109 121.75 27.7266V27.1602C121.75 25.6628 121.952 24.2695 122.355 22.9805C122.759 21.6784 123.365 20.5456 124.172 19.582C124.979 18.6055 125.988 17.8438 127.199 17.2969C128.41 16.75 129.829 16.4766 131.457 16.4766C133.189 16.4766 134.706 16.8086 136.008 17.4727C137.323 18.1367 138.352 19.0872 139.094 20.3242C139.849 21.5482 140.233 23 140.246 24.6797H134.953C134.94 23.9766 134.79 23.3385 134.504 22.7656C134.23 22.1927 133.827 21.737 133.293 21.3984C132.772 21.0469 132.128 20.8711 131.359 20.8711C130.539 20.8711 129.868 21.0469 129.348 21.3984C128.827 21.737 128.423 22.2057 128.137 22.8047C127.85 23.3906 127.648 24.0612 127.531 24.8164C127.427 25.5586 127.375 26.3398 127.375 27.1602V27.7266C127.375 28.5469 127.427 29.3346 127.531 30.0898C127.635 30.8451 127.831 31.5156 128.117 32.1016C128.417 32.6875 128.827 33.1497 129.348 33.4883C129.868 33.8268 130.546 33.9961 131.379 33.9961ZM153.234 38.3906C151.594 38.3906 150.122 38.1302 148.82 37.6094C147.518 37.0755 146.411 36.3398 145.5 35.4023C144.602 34.4648 143.911 33.3776 143.43 32.1406C142.948 30.8906 142.707 29.5625 142.707 28.1562V27.375C142.707 25.7734 142.935 24.3086 143.391 22.9805C143.846 21.6523 144.497 20.5 145.344 19.5234C146.203 18.5469 147.245 17.7982 148.469 17.2773C149.693 16.7435 151.073 16.4766 152.609 16.4766C154.107 16.4766 155.435 16.724 156.594 17.2188C157.753 17.7135 158.723 18.4167 159.504 19.3281C160.298 20.2396 160.897 21.3333 161.301 22.6094C161.704 23.8724 161.906 25.2786 161.906 26.8281V29.1719H145.109V25.4219H156.379V24.9922C156.379 24.2109 156.236 23.5143 155.949 22.9023C155.676 22.2773 155.259 21.7826 154.699 21.418C154.139 21.0534 153.423 20.8711 152.551 20.8711C151.809 20.8711 151.171 21.0339 150.637 21.3594C150.103 21.6849 149.667 22.1406 149.328 22.7266C149.003 23.3125 148.755 24.0026 148.586 24.7969C148.43 25.5781 148.352 26.4375 148.352 27.375V28.1562C148.352 29.0026 148.469 29.7839 148.703 30.5C148.951 31.2161 149.296 31.8346 149.738 32.3555C150.194 32.8763 150.741 33.2799 151.379 33.5664C152.03 33.8529 152.766 33.9961 153.586 33.9961C154.602 33.9961 155.546 33.8008 156.418 33.4102C157.303 33.0065 158.065 32.401 158.703 31.5938L161.438 34.5625C160.995 35.2005 160.389 35.8125 159.621 36.3984C158.866 36.9844 157.954 37.4661 156.887 37.8438C155.819 38.2083 154.602 38.3906 153.234 38.3906Z" fill="#353434"/>
<path d="M22.7383 33.8867V38H9.85352V33.8867H22.7383ZM11.5586 12.4062V38H6.28516V12.4062H11.5586ZM39.0859 31.3027C39.0859 30.8457 39.0156 30.4355 38.875 30.0723C38.7461 29.6973 38.5 29.3574 38.1367 29.0527C37.7734 28.7363 37.2637 28.4258 36.6074 28.1211C35.9512 27.8164 35.1016 27.5 34.0586 27.1719C32.8984 26.7969 31.7969 26.375 30.7539 25.9062C29.7227 25.4375 28.8086 24.8926 28.0117 24.2715C27.2266 23.6387 26.6055 22.9062 26.1484 22.0742C25.7031 21.2422 25.4805 20.2754 25.4805 19.1738C25.4805 18.1074 25.7148 17.1406 26.1836 16.2734C26.6523 15.3945 27.3086 14.6445 28.1523 14.0234C28.9961 13.3906 29.9922 12.9043 31.1406 12.5645C32.3008 12.2246 33.5723 12.0547 34.9551 12.0547C36.8418 12.0547 38.4883 12.3945 39.8945 13.0742C41.3008 13.7539 42.3906 14.6855 43.1641 15.8691C43.9492 17.0527 44.3418 18.4062 44.3418 19.9297H39.1035C39.1035 19.1797 38.9453 18.5234 38.6289 17.9609C38.3242 17.3867 37.8555 16.9355 37.2227 16.6074C36.6016 16.2793 35.8164 16.1152 34.8672 16.1152C33.9531 16.1152 33.1914 16.2559 32.582 16.5371C31.9727 16.8066 31.5156 17.1758 31.2109 17.6445C30.9062 18.1016 30.7539 18.6172 30.7539 19.1914C30.7539 19.625 30.8594 20.0176 31.0703 20.3691C31.293 20.7207 31.6211 21.0488 32.0547 21.3535C32.4883 21.6582 33.0215 21.9453 33.6543 22.2148C34.2871 22.4844 35.0195 22.748 35.8516 23.0059C37.2461 23.4277 38.4707 23.9023 39.5254 24.4297C40.5918 24.957 41.4824 25.5488 42.1973 26.2051C42.9121 26.8613 43.4512 27.6055 43.8145 28.4375C44.1777 29.2695 44.3594 30.2129 44.3594 31.2676C44.3594 32.3809 44.1426 33.377 43.709 34.2559C43.2754 35.1348 42.6484 35.8789 41.8281 36.4883C41.0078 37.0977 40.0293 37.5605 38.8926 37.877C37.7559 38.1934 36.4844 38.3516 35.0781 38.3516C33.8125 38.3516 32.5645 38.1875 31.334 37.8594C30.1035 37.5195 28.9844 37.0098 27.9766 36.3301C26.9805 35.6504 26.1836 34.7832 25.5859 33.7285C24.9883 32.6738 24.6895 31.4258 24.6895 29.9844H29.9805C29.9805 30.7812 30.1035 31.4551 30.3496 32.0059C30.5957 32.5566 30.9414 33.002 31.3867 33.3418C31.8438 33.6816 32.3828 33.9277 33.0039 34.0801C33.6367 34.2324 34.3281 34.3086 35.0781 34.3086C35.9922 34.3086 36.7422 34.1797 37.3281 33.9219C37.9258 33.6641 38.3652 33.3066 38.6465 32.8496C38.9395 32.3926 39.0859 31.877 39.0859 31.3027Z" fill="white"/>
</svg>
